<?xml version="1.0" encoding="UTF-8"?>
<svg xmlns="http://www.w3.org/2000/svg" xmlns:xlink="http://www.w3.org/1999/xlink" width="510.23622" height="255.11811" viewBox="0 0 510.23622 255.11811">
<defs>
<g>
<g id="glyph-0-0">
<path d="M 0.59375 0 L 0.59375 -0.625 L 1.765625 -0.625 L 1.765625 -8.125 L 0.59375 -8.125 L 0.59375 -8.75 L 2.828125 -8.75 L 8.078125 -1.84375 L 8.078125 -8.125 L 6.90625 -8.125 L 6.90625 -8.75 L 9.96875 -8.75 L 9.96875 -8.125 L 8.796875 -8.125 L 8.796875 0.171875 L 8.09375 0.171875 L 2.484375 -7.203125 L 2.484375 -0.625 L 3.65625 -0.625 L 3.65625 0 Z M 0.59375 0 "/>
</g>
<g id="glyph-0-1">
<path d="M 6.5 -3 L 1.859375 -3 L 1.859375 -2.953125 C 1.859375 -2.109375 2.015625 -1.472656 2.328125 -1.046875 C 2.648438 -0.617188 3.117188 -0.40625 3.734375 -0.40625 C 4.203125 -0.40625 4.585938 -0.53125 4.890625 -0.78125 C 5.191406 -1.03125 5.40625 -1.398438 5.53125 -1.890625 L 6.40625 -1.890625 C 6.226562 -1.203125 5.90625 -0.6875 5.4375 -0.34375 C 4.976562 0 4.375 0.171875 3.625 0.171875 C 2.707031 0.171875 1.972656 -0.125 1.421875 -0.71875 C 0.867188 -1.320312 0.59375 -2.125 0.59375 -3.125 C 0.59375 -4.101562 0.863281 -4.894531 1.40625 -5.5 C 1.957031 -6.101562 2.671875 -6.40625 3.546875 -6.40625 C 4.492188 -6.40625 5.21875 -6.113281 5.71875 -5.53125 C 6.21875 -4.945312 6.476562 -4.101562 6.5 -3 Z M 5.234375 -3.625 C 5.210938 -4.351562 5.054688 -4.898438 4.765625 -5.265625 C 4.484375 -5.628906 4.078125 -5.8125 3.546875 -5.8125 C 3.054688 -5.8125 2.664062 -5.625 2.375 -5.25 C 2.09375 -4.882812 1.921875 -4.34375 1.859375 -3.625 Z M 5.234375 -3.625 "/>
</g>
<g id="glyph-0-2">
<path d="M 0.671875 -0.34375 L 0.671875 -1.796875 L 1.296875 -1.796875 C 1.304688 -1.335938 1.445312 -0.988281 1.71875 -0.75 C 2 -0.519531 2.410156 -0.40625 2.953125 -0.40625 C 3.441406 -0.40625 3.8125 -0.492188 4.0625 -0.671875 C 4.3125 -0.859375 4.4375 -1.128906 4.4375 -1.484375 C 4.4375 -1.753906 4.34375 -1.972656 4.15625 -2.140625 C 3.976562 -2.304688 3.585938 -2.484375 2.984375 -2.671875 L 2.203125 -2.9375 C 1.671875 -3.113281 1.285156 -3.328125 1.046875 -3.578125 C 0.804688 -3.835938 0.6875 -4.171875 0.6875 -4.578125 C 0.6875 -5.140625 0.894531 -5.582031 1.3125 -5.90625 C 1.726562 -6.238281 2.304688 -6.40625 3.046875 -6.40625 C 3.378906 -6.40625 3.722656 -6.359375 4.078125 -6.265625 C 4.441406 -6.179688 4.816406 -6.054688 5.203125 -5.890625 L 5.203125 -4.53125 L 4.59375 -4.53125 C 4.570312 -4.9375 4.425781 -5.25 4.15625 -5.46875 C 3.894531 -5.695312 3.535156 -5.8125 3.078125 -5.8125 C 2.628906 -5.8125 2.285156 -5.734375 2.046875 -5.578125 C 1.816406 -5.421875 1.703125 -5.179688 1.703125 -4.859375 C 1.703125 -4.597656 1.789062 -4.382812 1.96875 -4.21875 C 2.144531 -4.0625 2.5 -3.90625 3.03125 -3.75 L 3.875 -3.484375 C 4.46875 -3.296875 4.894531 -3.0625 5.15625 -2.78125 C 5.414062 -2.507812 5.546875 -2.160156 5.546875 -1.734375 C 5.546875 -1.140625 5.316406 -0.671875 4.859375 -0.328125 C 4.410156 0.00390625 3.789062 0.171875 3 0.171875 C 2.59375 0.171875 2.195312 0.125 1.8125 0.03125 C 1.4375 -0.0507812 1.054688 -0.175781 0.671875 -0.34375 Z M 0.671875 -0.34375 "/>
</g>
<g id="glyph-0-3">
<path d="M 1.296875 -5.609375 L 0.34375 -5.609375 L 0.34375 -6.234375 L 1.296875 -6.234375 L 1.296875 -8.15625 L 2.375 -8.15625 L 2.375 -6.234375 L 4.40625 -6.234375 L 4.40625 -5.609375 L 2.375 -5.609375 L 2.375 -1.640625 C 2.375 -1.117188 2.425781 -0.78125 2.53125 -0.625 C 2.632812 -0.476562 2.820312 -0.40625 3.09375 -0.40625 C 3.375 -0.40625 3.578125 -0.488281 3.703125 -0.65625 C 3.835938 -0.820312 3.910156 -1.09375 3.921875 -1.46875 L 4.734375 -1.46875 C 4.703125 -0.894531 4.546875 -0.476562 4.265625 -0.21875 C 3.984375 0.0390625 3.5625 0.171875 3 0.171875 C 2.375 0.171875 1.929688 0.0351562 1.671875 -0.234375 C 1.421875 -0.515625 1.296875 -0.984375 1.296875 -1.640625 Z M 1.296875 -5.609375 "/>
</g>
<g id="glyph-0-4">
<path d="M 6.296875 -0.625 L 7.328125 -0.625 L 7.328125 0 L 5.21875 0 L 5.21875 -0.96875 C 5.007812 -0.582031 4.738281 -0.296875 4.40625 -0.109375 C 4.082031 0.078125 3.679688 0.171875 3.203125 0.171875 C 2.441406 0.171875 1.816406 -0.128906 1.328125 -0.734375 C 0.835938 -1.347656 0.59375 -2.144531 0.59375 -3.125 C 0.59375 -4.09375 0.832031 -4.878906 1.3125 -5.484375 C 1.800781 -6.097656 2.429688 -6.40625 3.203125 -6.40625 C 3.679688 -6.40625 4.082031 -6.3125 4.40625 -6.125 C 4.738281 -5.9375 5.007812 -5.644531 5.21875 -5.25 L 5.21875 -8.5 L 4.203125 -8.5 L 4.203125 -9.125 L 6.296875 -9.125 Z M 5.21875 -2.8125 L 5.21875 -3.421875 C 5.21875 -4.171875 5.070312 -4.738281 4.78125 -5.125 C 4.5 -5.519531 4.085938 -5.71875 3.546875 -5.71875 C 2.984375 -5.71875 2.5625 -5.5 2.28125 -5.0625 C 2 -4.625 1.859375 -3.976562 1.859375 -3.125 C 1.859375 -2.257812 2 -1.601562 2.28125 -1.15625 C 2.5625 -0.71875 2.984375 -0.5 3.546875 -0.5 C 4.085938 -0.5 4.5 -0.695312 4.78125 -1.09375 C 5.070312 -1.488281 5.21875 -2.0625 5.21875 -2.8125 Z M 5.21875 -2.8125 "/>
</g>
<g id="glyph-0-5">
</g>
<g id="glyph-0-6">
<path d="M 0.65625 0 L 0.65625 -0.625 L 1.78125 -0.625 L 1.78125 -8.125 L 0.65625 -8.125 L 0.65625 -8.75 L 4.078125 -8.75 L 4.078125 -8.125 L 2.96875 -8.125 L 2.96875 -0.71875 L 6.96875 -0.71875 L 6.96875 -2.1875 L 7.6875 -2.1875 L 7.6875 0 Z M 0.65625 0 "/>
</g>
<g id="glyph-0-7">
<path d="M 4.78125 -1.953125 L 4.78125 -3.28125 L 3.390625 -3.28125 C 2.847656 -3.28125 2.445312 -3.160156 2.1875 -2.921875 C 1.925781 -2.691406 1.796875 -2.34375 1.796875 -1.875 C 1.796875 -1.4375 1.925781 -1.085938 2.1875 -0.828125 C 2.457031 -0.578125 2.820312 -0.453125 3.28125 -0.453125 C 3.726562 -0.453125 4.085938 -0.59375 4.359375 -0.875 C 4.640625 -1.15625 4.78125 -1.515625 4.78125 -1.953125 Z M 5.859375 -3.890625 L 5.859375 -0.625 L 6.8125 -0.625 L 6.8125 0 L 4.78125 0 L 4.78125 -0.671875 C 4.539062 -0.378906 4.265625 -0.164062 3.953125 -0.03125 C 3.640625 0.101562 3.273438 0.171875 2.859375 0.171875 C 2.160156 0.171875 1.609375 -0.0078125 1.203125 -0.375 C 0.796875 -0.75 0.59375 -1.25 0.59375 -1.875 C 0.59375 -2.519531 0.828125 -3.019531 1.296875 -3.375 C 1.765625 -3.726562 2.421875 -3.90625 3.265625 -3.90625 L 4.78125 -3.90625 L 4.78125 -4.328125 C 4.78125 -4.804688 4.632812 -5.171875 4.34375 -5.421875 C 4.0625 -5.679688 3.660156 -5.8125 3.140625 -5.8125 C 2.703125 -5.8125 2.359375 -5.710938 2.109375 -5.515625 C 1.859375 -5.328125 1.703125 -5.039062 1.640625 -4.65625 L 1.078125 -4.65625 L 1.078125 -5.921875 C 1.453125 -6.078125 1.816406 -6.195312 2.171875 -6.28125 C 2.523438 -6.363281 2.867188 -6.40625 3.203125 -6.40625 C 4.066406 -6.40625 4.722656 -6.1875 5.171875 -5.75 C 5.628906 -5.320312 5.859375 -4.703125 5.859375 -3.890625 Z M 5.859375 -3.890625 "/>
</g>
<g id="glyph-0-8">
<path d="M 2.59375 1.140625 L 3 0.109375 L 0.671875 -5.609375 L -0.03125 -5.609375 L -0.03125 -6.234375 L 2.828125 -6.234375 L 2.828125 -5.609375 L 1.828125 -5.609375 L 3.59375 -1.3125 L 5.34375 -5.609375 L 4.40625 -5.609375 L 4.40625 -6.234375 L 6.75 -6.234375 L 6.75 -5.609375 L 6.046875 -5.609375 L 3.1875 1.40625 C 3 1.894531 2.785156 2.226562 2.546875 2.40625 C 2.304688 2.582031 1.96875 2.671875 1.53125 2.671875 C 1.351562 2.671875 1.164062 2.65625 0.96875 2.625 C 0.78125 2.59375 0.585938 2.546875 0.390625 2.484375 L 0.390625 1.296875 L 0.9375 1.296875 C 0.957031 1.554688 1.023438 1.742188 1.140625 1.859375 C 1.253906 1.984375 1.425781 2.046875 1.65625 2.046875 C 1.875 2.046875 2.046875 1.984375 2.171875 1.859375 C 2.304688 1.742188 2.445312 1.503906 2.59375 1.140625 Z M 2.59375 1.140625 "/>
</g>
<g id="glyph-0-9">
<path d="M 3.609375 -0.40625 C 4.191406 -0.40625 4.628906 -0.632812 4.921875 -1.09375 C 5.210938 -1.550781 5.359375 -2.226562 5.359375 -3.125 C 5.359375 -4.007812 5.210938 -4.675781 4.921875 -5.125 C 4.628906 -5.582031 4.191406 -5.8125 3.609375 -5.8125 C 3.035156 -5.8125 2.597656 -5.582031 2.296875 -5.125 C 2.003906 -4.675781 1.859375 -4.007812 1.859375 -3.125 C 1.859375 -2.226562 2.003906 -1.550781 2.296875 -1.09375 C 2.597656 -0.632812 3.035156 -0.40625 3.609375 -0.40625 Z M 3.609375 0.171875 C 2.703125 0.171875 1.972656 -0.125 1.421875 -0.71875 C 0.867188 -1.320312 0.59375 -2.125 0.59375 -3.125 C 0.59375 -4.113281 0.867188 -4.90625 1.421875 -5.5 C 1.972656 -6.101562 2.703125 -6.40625 3.609375 -6.40625 C 4.515625 -6.40625 5.242188 -6.101562 5.796875 -5.5 C 6.347656 -4.90625 6.625 -4.113281 6.625 -3.125 C 6.625 -2.125 6.347656 -1.320312 5.796875 -0.71875 C 5.242188 -0.125 4.515625 0.171875 3.609375 0.171875 Z M 3.609375 0.171875 "/>
</g>
<g id="glyph-0-10">
<path d="M 4.25 -6.234375 L 6.265625 -6.234375 L 6.265625 -0.625 L 7.28125 -0.625 L 7.28125 0 L 5.1875 0 L 5.1875 -1.109375 C 4.988281 -0.691406 4.726562 -0.375 4.40625 -0.15625 C 4.09375 0.0625 3.726562 0.171875 3.3125 0.171875 C 2.625 0.171875 2.113281 -0.0234375 1.78125 -0.421875 C 1.457031 -0.816406 1.296875 -1.429688 1.296875 -2.265625 L 1.296875 -5.609375 L 0.328125 -5.609375 L 0.328125 -6.234375 L 2.375 -6.234375 L 2.375 -2.609375 C 2.375 -1.847656 2.46875 -1.328125 2.65625 -1.046875 C 2.84375 -0.765625 3.175781 -0.625 3.65625 -0.625 C 4.15625 -0.625 4.535156 -0.804688 4.796875 -1.171875 C 5.054688 -1.535156 5.1875 -2.066406 5.1875 -2.765625 L 5.1875 -5.609375 L 4.25 -5.609375 Z M 4.25 -6.234375 "/>
</g>
<g id="glyph-0-11">
<path d="M 7.6875 -6.140625 C 7.550781 -6.867188 7.265625 -7.40625 6.828125 -7.75 C 6.390625 -8.101562 5.785156 -8.28125 5.015625 -8.28125 C 4.003906 -8.28125 3.25 -7.953125 2.75 -7.296875 C 2.257812 -6.648438 2.015625 -5.671875 2.015625 -4.359375 C 2.015625 -3.078125 2.269531 -2.101562 2.78125 -1.4375 C 3.289062 -0.78125 4.046875 -0.453125 5.046875 -0.453125 C 5.484375 -0.453125 5.898438 -0.503906 6.296875 -0.609375 C 6.703125 -0.722656 7.085938 -0.890625 7.453125 -1.109375 L 7.453125 -3.375 L 5.8125 -3.375 L 5.8125 -4 L 8.640625 -4 L 8.640625 -0.734375 C 8.117188 -0.429688 7.554688 -0.203125 6.953125 -0.046875 C 6.359375 0.0976562 5.722656 0.171875 5.046875 0.171875 C 3.722656 0.171875 2.660156 -0.238281 1.859375 -1.0625 C 1.066406 -1.894531 0.671875 -2.992188 0.671875 -4.359375 C 0.671875 -5.742188 1.066406 -6.847656 1.859375 -7.671875 C 2.660156 -8.492188 3.738281 -8.90625 5.09375 -8.90625 C 5.59375 -8.90625 6.109375 -8.847656 6.640625 -8.734375 C 7.171875 -8.617188 7.738281 -8.441406 8.34375 -8.203125 L 8.34375 -6.140625 Z M 7.6875 -6.140625 "/>
</g>
<g id="glyph-0-12">
<path d="M 5.734375 -6.234375 L 5.734375 -4.6875 L 5.109375 -4.6875 C 5.097656 -4.988281 5.015625 -5.21875 4.859375 -5.375 C 4.703125 -5.53125 4.476562 -5.609375 4.1875 -5.609375 C 3.65625 -5.609375 3.25 -5.421875 2.96875 -5.046875 C 2.6875 -4.679688 2.546875 -4.15625 2.546875 -3.46875 L 2.546875 -0.625 L 3.796875 -0.625 L 3.796875 0 L 0.5 0 L 0.5 -0.625 L 1.46875 -0.625 L 1.46875 -5.609375 L 0.4375 -5.609375 L 0.4375 -6.234375 L 2.546875 -6.234375 L 2.546875 -5.125 C 2.753906 -5.550781 3.023438 -5.867188 3.359375 -6.078125 C 3.691406 -6.296875 4.097656 -6.40625 4.578125 -6.40625 C 4.742188 -6.40625 4.925781 -6.390625 5.125 -6.359375 C 5.320312 -6.328125 5.523438 -6.285156 5.734375 -6.234375 Z M 5.734375 -6.234375 "/>
</g>
<g id="glyph-0-13">
<path d="M 2.46875 -3.421875 L 2.46875 -2.8125 C 2.46875 -2.0625 2.609375 -1.488281 2.890625 -1.09375 C 3.179688 -0.695312 3.597656 -0.5 4.140625 -0.5 C 4.691406 -0.5 5.109375 -0.71875 5.390625 -1.15625 C 5.671875 -1.601562 5.8125 -2.257812 5.8125 -3.125 C 5.8125 -3.976562 5.671875 -4.625 5.390625 -5.0625 C 5.109375 -5.5 4.691406 -5.71875 4.140625 -5.71875 C 3.597656 -5.71875 3.179688 -5.519531 2.890625 -5.125 C 2.609375 -4.738281 2.46875 -4.171875 2.46875 -3.421875 Z M 1.390625 -5.609375 L 0.34375 -5.609375 L 0.34375 -6.234375 L 2.46875 -6.234375 L 2.46875 -5.25 C 2.675781 -5.644531 2.941406 -5.9375 3.265625 -6.125 C 3.585938 -6.3125 3.992188 -6.40625 4.484375 -6.40625 C 5.242188 -6.40625 5.863281 -6.097656 6.34375 -5.484375 C 6.832031 -4.878906 7.078125 -4.09375 7.078125 -3.125 C 7.078125 -2.144531 6.832031 -1.347656 6.34375 -0.734375 C 5.863281 -0.128906 5.242188 0.171875 4.484375 0.171875 C 3.992188 0.171875 3.585938 0.078125 3.265625 -0.109375 C 2.941406 -0.296875 2.675781 -0.582031 2.46875 -0.96875 L 2.46875 1.875 L 3.484375 1.875 L 3.484375 2.5 L 0.34375 2.5 L 0.34375 1.875 L 1.390625 1.875 Z M 1.390625 -5.609375 "/>
</g>
<g id="glyph-0-14">
<path d="M 8.46875 -2.3125 C 8.207031 -1.5 7.769531 -0.878906 7.15625 -0.453125 C 6.550781 -0.0351562 5.785156 0.171875 4.859375 0.171875 C 4.285156 0.171875 3.753906 0.0703125 3.265625 -0.125 C 2.773438 -0.320312 2.34375 -0.609375 1.96875 -0.984375 C 1.53125 -1.421875 1.203125 -1.914062 0.984375 -2.46875 C 0.773438 -3.03125 0.671875 -3.660156 0.671875 -4.359375 C 0.671875 -5.722656 1.0625 -6.820312 1.84375 -7.65625 C 2.632812 -8.488281 3.671875 -8.90625 4.953125 -8.90625 C 5.429688 -8.90625 5.941406 -8.84375 6.484375 -8.71875 C 7.023438 -8.59375 7.601562 -8.40625 8.21875 -8.15625 L 8.21875 -6.140625 L 7.5625 -6.140625 C 7.414062 -6.867188 7.125 -7.40625 6.6875 -7.75 C 6.25 -8.101562 5.640625 -8.28125 4.859375 -8.28125 C 3.921875 -8.28125 3.210938 -7.945312 2.734375 -7.28125 C 2.253906 -6.625 2.015625 -5.648438 2.015625 -4.359375 C 2.015625 -3.078125 2.253906 -2.101562 2.734375 -1.4375 C 3.210938 -0.78125 3.921875 -0.453125 4.859375 -0.453125 C 5.515625 -0.453125 6.050781 -0.609375 6.46875 -0.921875 C 6.894531 -1.234375 7.203125 -1.695312 7.390625 -2.3125 Z M 8.46875 -2.3125 "/>
</g>
<g id="glyph-0-15">
<path d="M 0.5 0 L 0.5 -0.625 L 1.46875 -0.625 L 1.46875 -8.5 L 0.4375 -8.5 L 0.4375 -9.125 L 2.546875 -9.125 L 2.546875 -5.125 C 2.742188 -5.539062 3 -5.859375 3.3125 -6.078125 C 3.632812 -6.296875 4.007812 -6.40625 4.4375 -6.40625 C 5.125 -6.40625 5.628906 -6.207031 5.953125 -5.8125 C 6.273438 -5.414062 6.4375 -4.800781 6.4375 -3.96875 L 6.4375 -0.625 L 7.390625 -0.625 L 7.390625 0 L 4.421875 0 L 4.421875 -0.625 L 5.34375 -0.625 L 5.34375 -3.625 C 5.34375 -4.382812 5.25 -4.90625 5.0625 -5.1875 C 4.882812 -5.46875 4.554688 -5.609375 4.078125 -5.609375 C 3.578125 -5.609375 3.195312 -5.425781 2.9375 -5.0625 C 2.675781 -4.695312 2.546875 -4.164062 2.546875 -3.46875 L 2.546875 -0.625 L 3.484375 -0.625 L 3.484375 0 Z M 0.5 0 "/>
</g>
<g id="glyph-0-16">
<path d="M 2.96875 -0.625 L 4.71875 -0.625 C 5.414062 -0.625 5.925781 -0.773438 6.25 -1.078125 C 6.582031 -1.378906 6.75 -1.863281 6.75 -2.53125 C 6.75 -3.1875 6.585938 -3.664062 6.265625 -3.96875 C 5.941406 -4.28125 5.425781 -4.4375 4.71875 -4.4375 L 2.96875 -4.4375 Z M 2.96875 -5.046875 L 4.453125 -5.046875 C 5.097656 -5.046875 5.566406 -5.171875 5.859375 -5.421875 C 6.148438 -5.671875 6.296875 -6.0625 6.296875 -6.59375 C 6.296875 -7.125 6.148438 -7.507812 5.859375 -7.75 C 5.566406 -8 5.097656 -8.125 4.453125 -8.125 L 2.96875 -8.125 Z M 0.65625 0 L 0.65625 -0.625 L 1.78125 -0.625 L 1.78125 -8.125 L 0.65625 -8.125 L 0.65625 -8.75 L 4.984375 -8.75 C 5.867188 -8.75 6.53125 -8.566406 6.96875 -8.203125 C 7.414062 -7.847656 7.640625 -7.3125 7.640625 -6.59375 C 7.640625 -6.070312 7.484375 -5.65625 7.171875 -5.34375 C 6.867188 -5.03125 6.414062 -4.84375 5.8125 -4.78125 C 6.5625 -4.6875 7.128906 -4.445312 7.515625 -4.0625 C 7.898438 -3.6875 8.09375 -3.175781 8.09375 -2.53125 C 8.09375 -1.664062 7.816406 -1.023438 7.265625 -0.609375 C 6.722656 -0.203125 5.867188 0 4.703125 0 Z M 0.65625 0 "/>
</g>
<g id="glyph-0-17">
<path d="M 2.296875 0 L 2.296875 -0.625 L 3.40625 -0.625 L 3.40625 -8.046875 L 0.84375 -8.046875 L 0.84375 -6.6875 L 0.125 -6.6875 L 0.125 -8.75 L 7.890625 -8.75 L 7.890625 -6.6875 L 7.171875 -6.6875 L 7.171875 -8.046875 L 4.59375 -8.046875 L 4.59375 -0.625 L 5.71875 -0.625 L 5.71875 0 Z M 2.296875 0 "/>
</g>
<g id="glyph-0-18">
<path d="M 1.171875 -8.15625 C 1.171875 -8.34375 1.234375 -8.5 1.359375 -8.625 C 1.492188 -8.757812 1.648438 -8.828125 1.828125 -8.828125 C 2.015625 -8.828125 2.171875 -8.757812 2.296875 -8.625 C 2.429688 -8.5 2.5 -8.34375 2.5 -8.15625 C 2.5 -7.976562 2.429688 -7.820312 2.296875 -7.6875 C 2.171875 -7.5625 2.015625 -7.5 1.828125 -7.5 C 1.648438 -7.5 1.492188 -7.5625 1.359375 -7.6875 C 1.234375 -7.820312 1.171875 -7.976562 1.171875 -8.15625 Z M 2.546875 -0.625 L 3.5625 -0.625 L 3.5625 0 L 0.4375 0 L 0.4375 -0.625 L 1.46875 -0.625 L 1.46875 -5.609375 L 0.4375 -5.609375 L 0.4375 -6.234375 L 2.546875 -6.234375 Z M 2.546875 -0.625 "/>
</g>
<g id="glyph-0-19">
<path d="M 6.296875 -5.609375 L 6.296875 -0.140625 C 6.296875 0.753906 6.050781 1.445312 5.5625 1.9375 C 5.070312 2.425781 4.367188 2.671875 3.453125 2.671875 C 3.046875 2.671875 2.65625 2.628906 2.28125 2.546875 C 1.90625 2.472656 1.546875 2.363281 1.203125 2.21875 L 1.203125 0.921875 L 1.765625 0.921875 C 1.835938 1.328125 2.003906 1.625 2.265625 1.8125 C 2.523438 2 2.898438 2.09375 3.390625 2.09375 C 4.023438 2.09375 4.488281 1.910156 4.78125 1.546875 C 5.070312 1.191406 5.21875 0.628906 5.21875 -0.140625 L 5.21875 -0.96875 C 5.007812 -0.582031 4.738281 -0.296875 4.40625 -0.109375 C 4.082031 0.078125 3.679688 0.171875 3.203125 0.171875 C 2.441406 0.171875 1.816406 -0.128906 1.328125 -0.734375 C 0.835938 -1.347656 0.59375 -2.144531 0.59375 -3.125 C 0.59375 -4.09375 0.832031 -4.878906 1.3125 -5.484375 C 1.800781 -6.097656 2.429688 -6.40625 3.203125 -6.40625 C 3.679688 -6.40625 4.082031 -6.3125 4.40625 -6.125 C 4.738281 -5.9375 5.007812 -5.644531 5.21875 -5.25 L 5.21875 -6.234375 L 7.328125 -6.234375 L 7.328125 -5.609375 Z M 5.21875 -3.421875 C 5.21875 -4.171875 5.070312 -4.738281 4.78125 -5.125 C 4.5 -5.519531 4.085938 -5.71875 3.546875 -5.71875 C 2.984375 -5.71875 2.5625 -5.5 2.28125 -5.0625 C 2 -4.625 1.859375 -3.976562 1.859375 -3.125 C 1.859375 -2.257812 2 -1.601562 2.28125 -1.15625 C 2.5625 -0.71875 2.984375 -0.5 3.546875 -0.5 C 4.085938 -0.5 4.5 -0.695312 4.78125 -1.09375 C 5.070312 -1.488281 5.21875 -2.0625 5.21875 -2.8125 Z M 5.21875 -3.421875 "/>
</g>
<g id="glyph-0-20">
<path d="M 0.5 0 L 0.5 -0.625 L 1.46875 -0.625 L 1.46875 -5.609375 L 0.4375 -5.609375 L 0.4375 -6.234375 L 2.546875 -6.234375 L 2.546875 -5.125 C 2.742188 -5.539062 3 -5.859375 3.3125 -6.078125 C 3.632812 -6.296875 4.007812 -6.40625 4.4375 -6.40625 C 5.125 -6.40625 5.628906 -6.207031 5.953125 -5.8125 C 6.273438 -5.414062 6.4375 -4.800781 6.4375 -3.96875 L 6.4375 -0.625 L 7.390625 -0.625 L 7.390625 0 L 4.421875 0 L 4.421875 -0.625 L 5.34375 -0.625 L 5.34375 -3.625 C 5.34375 -4.382812 5.25 -4.90625 5.0625 -5.1875 C 4.875 -5.46875 4.546875 -5.609375 4.078125 -5.609375 C 3.578125 -5.609375 3.195312 -5.425781 2.9375 -5.0625 C 2.675781 -4.695312 2.546875 -4.164062 2.546875 -3.46875 L 2.546875 -0.625 L 3.484375 -0.625 L 3.484375 0 Z M 0.5 0 "/>
</g>
<g id="glyph-0-21">
<path d="M 6.21875 -5.015625 C 6.425781 -5.472656 6.691406 -5.816406 7.015625 -6.046875 C 7.335938 -6.285156 7.710938 -6.40625 8.140625 -6.40625 C 8.796875 -6.40625 9.28125 -6.203125 9.59375 -5.796875 C 9.914062 -5.390625 10.078125 -4.78125 10.078125 -3.96875 L 10.078125 -0.625 L 11.046875 -0.625 L 11.046875 0 L 8.0625 0 L 8.0625 -0.625 L 9 -0.625 L 9 -3.84375 C 9 -4.476562 8.90625 -4.929688 8.71875 -5.203125 C 8.53125 -5.472656 8.21875 -5.609375 7.78125 -5.609375 C 7.300781 -5.609375 6.9375 -5.425781 6.6875 -5.0625 C 6.4375 -4.695312 6.3125 -4.164062 6.3125 -3.46875 L 6.3125 -0.625 L 7.25 -0.625 L 7.25 0 L 4.296875 0 L 4.296875 -0.625 L 5.234375 -0.625 L 5.234375 -3.875 C 5.234375 -4.5 5.140625 -4.941406 4.953125 -5.203125 C 4.765625 -5.472656 4.453125 -5.609375 4.015625 -5.609375 C 3.535156 -5.609375 3.171875 -5.425781 2.921875 -5.0625 C 2.671875 -4.695312 2.546875 -4.164062 2.546875 -3.46875 L 2.546875 -0.625 L 3.484375 -0.625 L 3.484375 0 L 0.5 0 L 0.5 -0.625 L 1.46875 -0.625 L 1.46875 -5.609375 L 0.4375 -5.609375 L 0.4375 -6.234375 L 2.546875 -6.234375 L 2.546875 -5.125 C 2.742188 -5.539062 2.992188 -5.859375 3.296875 -6.078125 C 3.609375 -6.296875 3.960938 -6.40625 4.359375 -6.40625 C 4.835938 -6.40625 5.238281 -6.28125 5.5625 -6.03125 C 5.882812 -5.789062 6.101562 -5.453125 6.21875 -5.015625 Z M 6.21875 -5.015625 "/>
</g>
<g id="glyph-0-22">
<path d="M 1.109375 -0.421875 L 1.109375 -2.421875 L 1.78125 -2.40625 C 1.800781 -1.738281 1.992188 -1.242188 2.359375 -0.921875 C 2.722656 -0.609375 3.28125 -0.453125 4.03125 -0.453125 C 4.726562 -0.453125 5.257812 -0.585938 5.625 -0.859375 C 5.988281 -1.140625 6.171875 -1.546875 6.171875 -2.078125 C 6.171875 -2.492188 6.0625 -2.816406 5.84375 -3.046875 C 5.625 -3.273438 5.15625 -3.492188 4.4375 -3.703125 L 3.28125 -4.0625 C 2.445312 -4.3125 1.859375 -4.625 1.515625 -5 C 1.179688 -5.382812 1.015625 -5.90625 1.015625 -6.5625 C 1.015625 -7.300781 1.273438 -7.875 1.796875 -8.28125 C 2.328125 -8.695312 3.066406 -8.90625 4.015625 -8.90625 C 4.421875 -8.90625 4.863281 -8.859375 5.34375 -8.765625 C 5.832031 -8.679688 6.351562 -8.554688 6.90625 -8.390625 L 6.90625 -6.53125 L 6.234375 -6.53125 C 6.171875 -7.144531 5.96875 -7.585938 5.625 -7.859375 C 5.28125 -8.140625 4.753906 -8.28125 4.046875 -8.28125 C 3.429688 -8.28125 2.960938 -8.15625 2.640625 -7.90625 C 2.316406 -7.65625 2.15625 -7.285156 2.15625 -6.796875 C 2.15625 -6.378906 2.273438 -6.050781 2.515625 -5.8125 C 2.753906 -5.582031 3.269531 -5.347656 4.0625 -5.109375 L 5.140625 -4.78125 C 5.929688 -4.550781 6.492188 -4.25 6.828125 -3.875 C 7.171875 -3.507812 7.34375 -3.015625 7.34375 -2.390625 C 7.34375 -1.546875 7.070312 -0.90625 6.53125 -0.46875 C 5.988281 -0.0390625 5.179688 0.171875 4.109375 0.171875 C 3.617188 0.171875 3.125 0.117188 2.625 0.015625 C 2.132812 -0.078125 1.628906 -0.222656 1.109375 -0.421875 Z M 1.109375 -0.421875 "/>
</g>
<g id="glyph-0-23">
<path d="M 2.46875 -0.625 L 3.484375 -0.625 L 3.484375 0 L 0.34375 0 L 0.34375 -0.625 L 1.390625 -0.625 L 1.390625 -8.5 L 0.34375 -8.5 L 0.34375 -9.125 L 2.46875 -9.125 Z M 2.46875 -0.625 "/>
</g>
<g id="glyph-0-24">
<path d="M 0.65625 0 L 0.65625 -0.625 L 1.78125 -0.625 L 1.78125 -8.125 L 0.65625 -8.125 L 0.65625 -8.75 L 7.703125 -8.75 L 7.703125 -6.796875 L 6.984375 -6.796875 L 6.984375 -8.03125 L 2.96875 -8.03125 L 2.96875 -5.09375 L 5.828125 -5.09375 L 5.828125 -6.1875 L 6.546875 -6.1875 L 6.546875 -3.28125 L 5.828125 -3.28125 L 5.828125 -4.390625 L 2.96875 -4.390625 L 2.96875 -0.71875 L 7.078125 -0.71875 L 7.078125 -1.953125 L 7.796875 -1.953125 L 7.796875 0 Z M 0.65625 0 "/>
</g>
<g id="glyph-1-0">
<path d="M 3.171875 -0.34375 C 3.671875 -0.34375 4.046875 -0.613281 4.296875 -1.15625 C 4.546875 -1.707031 4.671875 -2.535156 4.671875 -3.640625 C 4.671875 -4.742188 4.546875 -5.566406 4.296875 -6.109375 C 4.046875 -6.660156 3.671875 -6.9375 3.171875 -6.9375 C 2.679688 -6.9375 2.3125 -6.660156 2.0625 -6.109375 C 1.8125 -5.566406 1.6875 -4.742188 1.6875 -3.640625 C 1.6875 -2.535156 1.8125 -1.707031 2.0625 -1.15625 C 2.3125 -0.613281 2.679688 -0.34375 3.171875 -0.34375 Z M 3.171875 0.140625 C 2.390625 0.140625 1.773438 -0.1875 1.328125 -0.84375 C 0.878906 -1.507812 0.65625 -2.441406 0.65625 -3.640625 C 0.65625 -4.835938 0.878906 -5.765625 1.328125 -6.421875 C 1.773438 -7.085938 2.390625 -7.421875 3.171875 -7.421875 C 3.972656 -7.421875 4.59375 -7.085938 5.03125 -6.421875 C 5.476562 -5.765625 5.703125 -4.835938 5.703125 -3.640625 C 5.703125 -2.441406 5.476562 -1.507812 5.03125 -0.84375 C 4.59375 -0.1875 3.972656 0.140625 3.171875 0.140625 Z M 3.171875 0.140625 "/>
</g>
<g id="glyph-1-1">
<path d="M 1.421875 0 L 1.421875 -0.515625 L 2.6875 -0.515625 L 2.6875 -6.578125 L 1.21875 -5.625 L 1.21875 -6.265625 L 3 -7.421875 L 3.671875 -7.421875 L 3.671875 -0.515625 L 4.9375 -0.515625 L 4.9375 0 Z M 1.421875 0 "/>
</g>
<g id="glyph-1-2">
<path d="M 1.28125 -5.546875 L 0.734375 -5.546875 L 0.734375 -6.84375 C 1.078125 -7.03125 1.425781 -7.171875 1.78125 -7.265625 C 2.132812 -7.367188 2.484375 -7.421875 2.828125 -7.421875 C 3.578125 -7.421875 4.171875 -7.234375 4.609375 -6.859375 C 5.054688 -6.492188 5.28125 -6 5.28125 -5.375 C 5.28125 -4.65625 4.78125 -3.800781 3.78125 -2.8125 C 3.707031 -2.738281 3.648438 -2.679688 3.609375 -2.640625 L 1.765625 -0.796875 L 4.8125 -0.796875 L 4.8125 -1.703125 L 5.375 -1.703125 L 5.375 0 L 0.671875 0 L 0.671875 -0.53125 L 2.890625 -2.734375 C 3.378906 -3.222656 3.726562 -3.671875 3.9375 -4.078125 C 4.144531 -4.492188 4.25 -4.925781 4.25 -5.375 C 4.25 -5.863281 4.117188 -6.242188 3.859375 -6.515625 C 3.609375 -6.796875 3.257812 -6.9375 2.8125 -6.9375 C 2.34375 -6.9375 1.976562 -6.820312 1.71875 -6.59375 C 1.46875 -6.363281 1.320312 -6.015625 1.28125 -5.546875 Z M 1.28125 -5.546875 "/>
</g>
<g id="glyph-1-3">
<path d="M 0.96875 -6.984375 C 1.351562 -7.128906 1.71875 -7.238281 2.0625 -7.3125 C 2.414062 -7.382812 2.742188 -7.421875 3.046875 -7.421875 C 3.765625 -7.421875 4.320312 -7.265625 4.71875 -6.953125 C 5.125 -6.648438 5.328125 -6.222656 5.328125 -5.671875 C 5.328125 -5.234375 5.1875 -4.867188 4.90625 -4.578125 C 4.632812 -4.285156 4.242188 -4.085938 3.734375 -3.984375 C 4.328125 -3.898438 4.789062 -3.679688 5.125 -3.328125 C 5.457031 -2.972656 5.625 -2.519531 5.625 -1.96875 C 5.625 -1.289062 5.394531 -0.769531 4.9375 -0.40625 C 4.476562 -0.0390625 3.816406 0.140625 2.953125 0.140625 C 2.578125 0.140625 2.207031 0.0976562 1.84375 0.015625 C 1.476562 -0.0664062 1.117188 -0.191406 0.765625 -0.359375 L 0.765625 -1.765625 L 1.3125 -1.765625 C 1.34375 -1.296875 1.5 -0.941406 1.78125 -0.703125 C 2.0625 -0.460938 2.460938 -0.34375 2.984375 -0.34375 C 3.472656 -0.34375 3.863281 -0.484375 4.15625 -0.765625 C 4.445312 -1.054688 4.59375 -1.453125 4.59375 -1.953125 C 4.59375 -2.523438 4.441406 -2.957031 4.140625 -3.25 C 3.847656 -3.550781 3.414062 -3.703125 2.84375 -3.703125 L 2.375 -3.703125 L 2.375 -4.203125 L 2.625 -4.203125 C 3.195312 -4.203125 3.625 -4.316406 3.90625 -4.546875 C 4.1875 -4.785156 4.328125 -5.144531 4.328125 -5.625 C 4.328125 -6.050781 4.207031 -6.375 3.96875 -6.59375 C 3.738281 -6.820312 3.40625 -6.9375 2.96875 -6.9375 C 2.53125 -6.9375 2.1875 -6.832031 1.9375 -6.625 C 1.695312 -6.414062 1.554688 -6.109375 1.515625 -5.703125 L 0.96875 -5.703125 Z M 0.96875 -6.984375 "/>
</g>
<g id="glyph-1-4">
<path d="M 3.484375 -2.46875 L 3.484375 -6.34375 L 1 -2.46875 Z M 5.640625 0 L 2.3125 0 L 2.3125 -0.515625 L 3.484375 -0.515625 L 3.484375 -1.953125 L 0.3125 -1.953125 L 0.3125 -2.484375 L 3.5 -7.421875 L 4.46875 -7.421875 L 4.46875 -2.46875 L 5.859375 -2.46875 L 5.859375 -1.953125 L 4.46875 -1.953125 L 4.46875 -0.515625 L 5.640625 -0.515625 Z M 5.640625 0 "/>
</g>
<g id="glyph-1-5">
<path d="M 5.03125 -7.296875 L 5.03125 -6.484375 L 1.6875 -6.484375 L 1.6875 -4.40625 C 1.851562 -4.519531 2.050781 -4.601562 2.28125 -4.65625 C 2.507812 -4.71875 2.765625 -4.75 3.046875 -4.75 C 3.828125 -4.75 4.445312 -4.53125 4.90625 -4.09375 C 5.363281 -3.65625 5.59375 -3.0625 5.59375 -2.3125 C 5.59375 -1.539062 5.359375 -0.9375 4.890625 -0.5 C 4.429688 -0.0703125 3.785156 0.140625 2.953125 0.140625 C 2.617188 0.140625 2.273438 0.0976562 1.921875 0.015625 C 1.578125 -0.0664062 1.21875 -0.191406 0.84375 -0.359375 L 0.84375 -1.765625 L 1.40625 -1.765625 C 1.4375 -1.304688 1.582031 -0.953125 1.84375 -0.703125 C 2.101562 -0.460938 2.472656 -0.34375 2.953125 -0.34375 C 3.472656 -0.34375 3.867188 -0.507812 4.140625 -0.84375 C 4.421875 -1.1875 4.5625 -1.675781 4.5625 -2.3125 C 4.5625 -2.9375 4.421875 -3.414062 4.140625 -3.75 C 3.867188 -4.09375 3.472656 -4.265625 2.953125 -4.265625 C 2.660156 -4.265625 2.398438 -4.210938 2.171875 -4.109375 C 1.953125 -4.003906 1.757812 -3.84375 1.59375 -3.625 L 1.171875 -3.625 L 1.171875 -7.296875 Z M 5.03125 -7.296875 "/>
</g>
<g id="glyph-1-6">
<path d="M 3.265625 -0.34375 C 3.722656 -0.34375 4.078125 -0.507812 4.328125 -0.84375 C 4.578125 -1.1875 4.703125 -1.671875 4.703125 -2.296875 C 4.703125 -2.929688 4.578125 -3.414062 4.328125 -3.75 C 4.078125 -4.09375 3.722656 -4.265625 3.265625 -4.265625 C 2.804688 -4.265625 2.453125 -4.097656 2.203125 -3.765625 C 1.960938 -3.441406 1.84375 -2.972656 1.84375 -2.359375 C 1.84375 -1.710938 1.960938 -1.210938 2.203125 -0.859375 C 2.453125 -0.515625 2.804688 -0.34375 3.265625 -0.34375 Z M 1.6875 -4.015625 C 1.90625 -4.253906 2.15625 -4.429688 2.4375 -4.546875 C 2.71875 -4.671875 3.03125 -4.734375 3.375 -4.734375 C 4.101562 -4.734375 4.675781 -4.515625 5.09375 -4.078125 C 5.519531 -3.648438 5.734375 -3.054688 5.734375 -2.296875 C 5.734375 -1.554688 5.503906 -0.960938 5.046875 -0.515625 C 4.597656 -0.078125 3.992188 0.140625 3.234375 0.140625 C 2.410156 0.140625 1.773438 -0.164062 1.328125 -0.78125 C 0.890625 -1.394531 0.671875 -2.269531 0.671875 -3.40625 C 0.671875 -4.6875 0.929688 -5.675781 1.453125 -6.375 C 1.972656 -7.070312 2.710938 -7.421875 3.671875 -7.421875 C 3.929688 -7.421875 4.203125 -7.394531 4.484375 -7.34375 C 4.765625 -7.300781 5.054688 -7.226562 5.359375 -7.125 L 5.359375 -5.921875 L 4.796875 -5.921875 C 4.753906 -6.253906 4.628906 -6.503906 4.421875 -6.671875 C 4.210938 -6.847656 3.925781 -6.9375 3.5625 -6.9375 C 2.9375 -6.9375 2.46875 -6.695312 2.15625 -6.21875 C 1.84375 -5.738281 1.6875 -5.003906 1.6875 -4.015625 Z M 1.6875 -4.015625 "/>
</g>
<g id="glyph-1-7">
<path d="M 0.4375 -3.0625 L 2.9375 -3.0625 L 2.9375 -2.296875 L 0.4375 -2.296875 Z M 0.4375 -3.0625 "/>
</g>
<g id="glyph-1-8">
<path d="M 0.9375 -0.515625 C 0.9375 -0.691406 1 -0.84375 1.125 -0.96875 C 1.25 -1.09375 1.40625 -1.15625 1.59375 -1.15625 C 1.769531 -1.15625 1.921875 -1.09375 2.046875 -0.96875 C 2.171875 -0.84375 2.234375 -0.691406 2.234375 -0.515625 C 2.234375 -0.328125 2.171875 -0.171875 2.046875 -0.046875 C 1.921875 0.078125 1.769531 0.140625 1.59375 0.140625 C 1.40625 0.140625 1.25 0.078125 1.125 -0.046875 C 1 -0.171875 0.9375 -0.328125 0.9375 -0.515625 Z M 0.9375 -0.515625 "/>
</g>
<g id="glyph-1-9">
<path d="M 0.5625 -0.28125 L 0.5625 -1.5 L 1.078125 -1.5 C 1.085938 -1.113281 1.207031 -0.820312 1.4375 -0.625 C 1.664062 -0.4375 2.007812 -0.34375 2.46875 -0.34375 C 2.863281 -0.34375 3.164062 -0.414062 3.375 -0.5625 C 3.59375 -0.71875 3.703125 -0.941406 3.703125 -1.234375 C 3.703125 -1.460938 3.625 -1.644531 3.46875 -1.78125 C 3.3125 -1.925781 2.984375 -2.078125 2.484375 -2.234375 L 1.84375 -2.453125 C 1.394531 -2.597656 1.070312 -2.773438 0.875 -2.984375 C 0.675781 -3.203125 0.578125 -3.476562 0.578125 -3.8125 C 0.578125 -4.28125 0.75 -4.648438 1.09375 -4.921875 C 1.4375 -5.191406 1.921875 -5.328125 2.546875 -5.328125 C 2.816406 -5.328125 3.101562 -5.289062 3.40625 -5.21875 C 3.707031 -5.15625 4.019531 -5.050781 4.34375 -4.90625 L 4.34375 -3.78125 L 3.828125 -3.78125 C 3.804688 -4.113281 3.6875 -4.375 3.46875 -4.5625 C 3.25 -4.75 2.945312 -4.84375 2.5625 -4.84375 C 2.1875 -4.84375 1.898438 -4.773438 1.703125 -4.640625 C 1.515625 -4.515625 1.421875 -4.316406 1.421875 -4.046875 C 1.421875 -3.828125 1.492188 -3.648438 1.640625 -3.515625 C 1.785156 -3.390625 2.078125 -3.257812 2.515625 -3.125 L 3.234375 -2.90625 C 3.722656 -2.75 4.078125 -2.554688 4.296875 -2.328125 C 4.515625 -2.097656 4.625 -1.800781 4.625 -1.4375 C 4.625 -0.945312 4.429688 -0.5625 4.046875 -0.28125 C 3.671875 0 3.15625 0.140625 2.5 0.140625 C 2.164062 0.140625 1.835938 0.101562 1.515625 0.03125 C 1.203125 -0.0390625 0.882812 -0.144531 0.5625 -0.28125 Z M 0.5625 -0.28125 "/>
</g>
<g id="glyph-1-10">
<path d="M 0.96875 -6.796875 C 0.96875 -6.953125 1.019531 -7.082031 1.125 -7.1875 C 1.238281 -7.300781 1.375 -7.359375 1.53125 -7.359375 C 1.675781 -7.359375 1.800781 -7.300781 1.90625 -7.1875 C 2.019531 -7.082031 2.078125 -6.953125 2.078125 -6.796875 C 2.078125 -6.648438 2.023438 -6.519531 1.921875 -6.40625 C 1.816406 -6.300781 1.6875 -6.25 1.53125 -6.25 C 1.375 -6.25 1.238281 -6.300781 1.125 -6.40625 C 1.019531 -6.519531 0.96875 -6.648438 0.96875 -6.796875 Z M 2.125 -0.515625 L 2.96875 -0.515625 L 2.96875 0 L 0.359375 0 L 0.359375 -0.515625 L 1.21875 -0.515625 L 1.21875 -4.671875 L 0.359375 -4.671875 L 0.359375 -5.1875 L 2.125 -5.1875 Z M 2.125 -0.515625 "/>
</g>
<g id="glyph-1-11">
<path d="M 0.40625 0 L 0.40625 -0.515625 L 1.21875 -0.515625 L 1.21875 -4.671875 L 0.359375 -4.671875 L 0.359375 -5.1875 L 2.125 -5.1875 L 2.125 -4.265625 C 2.289062 -4.617188 2.503906 -4.882812 2.765625 -5.0625 C 3.035156 -5.238281 3.34375 -5.328125 3.6875 -5.328125 C 4.257812 -5.328125 4.679688 -5.160156 4.953125 -4.828125 C 5.222656 -4.503906 5.359375 -3.992188 5.359375 -3.296875 L 5.359375 -0.515625 L 6.15625 -0.515625 L 6.15625 0 L 3.6875 0 L 3.6875 -0.515625 L 4.453125 -0.515625 L 4.453125 -3.015625 C 4.453125 -3.648438 4.375 -4.082031 4.21875 -4.3125 C 4.0625 -4.550781 3.789062 -4.671875 3.40625 -4.671875 C 2.988281 -4.671875 2.671875 -4.519531 2.453125 -4.21875 C 2.234375 -3.914062 2.125 -3.472656 2.125 -2.890625 L 2.125 -0.515625 L 2.90625 -0.515625 L 2.90625 0 Z M 0.40625 0 "/>
</g>
<g id="glyph-1-12">
<path d="M 5.140625 -1.5625 C 5.015625 -1.007812 4.769531 -0.585938 4.40625 -0.296875 C 4.050781 -0.00390625 3.585938 0.140625 3.015625 0.140625 C 2.253906 0.140625 1.644531 -0.109375 1.1875 -0.609375 C 0.726562 -1.109375 0.5 -1.769531 0.5 -2.59375 C 0.5 -3.425781 0.726562 -4.085938 1.1875 -4.578125 C 1.644531 -5.078125 2.253906 -5.328125 3.015625 -5.328125 C 3.335938 -5.328125 3.660156 -5.289062 3.984375 -5.21875 C 4.316406 -5.144531 4.644531 -5.03125 4.96875 -4.875 L 4.96875 -3.546875 L 4.453125 -3.546875 C 4.378906 -3.992188 4.226562 -4.320312 4 -4.53125 C 3.769531 -4.738281 3.441406 -4.84375 3.015625 -4.84375 C 2.535156 -4.84375 2.171875 -4.65625 1.921875 -4.28125 C 1.671875 -3.90625 1.546875 -3.34375 1.546875 -2.59375 C 1.546875 -1.84375 1.664062 -1.28125 1.90625 -0.90625 C 2.15625 -0.53125 2.523438 -0.34375 3.015625 -0.34375 C 3.398438 -0.34375 3.707031 -0.441406 3.9375 -0.640625 C 4.175781 -0.847656 4.335938 -1.15625 4.421875 -1.5625 Z M 5.140625 -1.5625 "/>
</g>
<g id="glyph-1-13">
<path d="M 3.015625 -0.34375 C 3.492188 -0.34375 3.851562 -0.53125 4.09375 -0.90625 C 4.34375 -1.289062 4.46875 -1.851562 4.46875 -2.59375 C 4.46875 -3.34375 4.34375 -3.90625 4.09375 -4.28125 C 3.851562 -4.65625 3.492188 -4.84375 3.015625 -4.84375 C 2.523438 -4.84375 2.15625 -4.65625 1.90625 -4.28125 C 1.664062 -3.90625 1.546875 -3.34375 1.546875 -2.59375 C 1.546875 -1.851562 1.671875 -1.289062 1.921875 -0.90625 C 2.171875 -0.53125 2.535156 -0.34375 3.015625 -0.34375 Z M 3.015625 0.140625 C 2.253906 0.140625 1.644531 -0.109375 1.1875 -0.609375 C 0.726562 -1.109375 0.5 -1.769531 0.5 -2.59375 C 0.5 -3.425781 0.726562 -4.085938 1.1875 -4.578125 C 1.644531 -5.078125 2.253906 -5.328125 3.015625 -5.328125 C 3.765625 -5.328125 4.367188 -5.078125 4.828125 -4.578125 C 5.285156 -4.085938 5.515625 -3.425781 5.515625 -2.59375 C 5.515625 -1.769531 5.285156 -1.109375 4.828125 -0.609375 C 4.367188 -0.109375 3.765625 0.140625 3.015625 0.140625 Z M 3.015625 0.140625 "/>
</g>
<g id="glyph-1-14">
<path d="M 4.65625 -2 C 4.65625 -2.519531 4.523438 -2.921875 4.265625 -3.203125 C 4.003906 -3.492188 3.640625 -3.640625 3.171875 -3.640625 C 2.703125 -3.640625 2.335938 -3.492188 2.078125 -3.203125 C 1.828125 -2.921875 1.703125 -2.519531 1.703125 -2 C 1.703125 -1.46875 1.828125 -1.054688 2.078125 -0.765625 C 2.335938 -0.484375 2.703125 -0.34375 3.171875 -0.34375 C 3.640625 -0.34375 4.003906 -0.484375 4.265625 -0.765625 C 4.523438 -1.054688 4.65625 -1.46875 4.65625 -2 Z M 4.453125 -5.53125 C 4.453125 -5.976562 4.335938 -6.320312 4.109375 -6.5625 C 3.890625 -6.8125 3.578125 -6.9375 3.171875 -6.9375 C 2.773438 -6.9375 2.460938 -6.8125 2.234375 -6.5625 C 2.015625 -6.320312 1.90625 -5.976562 1.90625 -5.53125 C 1.90625 -5.082031 2.015625 -4.734375 2.234375 -4.484375 C 2.460938 -4.242188 2.773438 -4.125 3.171875 -4.125 C 3.578125 -4.125 3.890625 -4.242188 4.109375 -4.484375 C 4.335938 -4.734375 4.453125 -5.082031 4.453125 -5.53125 Z M 3.9375 -3.875 C 4.488281 -3.800781 4.914062 -3.597656 5.21875 -3.265625 C 5.53125 -2.929688 5.6875 -2.507812 5.6875 -2 C 5.6875 -1.3125 5.46875 -0.78125 5.03125 -0.40625 C 4.601562 -0.0390625 3.984375 0.140625 3.171875 0.140625 C 2.367188 0.140625 1.75 -0.0390625 1.3125 -0.40625 C 0.882812 -0.78125 0.671875 -1.3125 0.671875 -2 C 0.671875 -2.507812 0.820312 -2.929688 1.125 -3.265625 C 1.4375 -3.597656 1.875 -3.800781 2.4375 -3.875 C 1.9375 -3.96875 1.554688 -4.15625 1.296875 -4.4375 C 1.035156 -4.726562 0.90625 -5.09375 0.90625 -5.53125 C 0.90625 -6.113281 1.109375 -6.570312 1.515625 -6.90625 C 1.921875 -7.25 2.472656 -7.421875 3.171875 -7.421875 C 3.878906 -7.421875 4.4375 -7.25 4.84375 -6.90625 C 5.25 -6.570312 5.453125 -6.113281 5.453125 -5.53125 C 5.453125 -5.09375 5.316406 -4.726562 5.046875 -4.4375 C 4.785156 -4.15625 4.414062 -3.96875 3.9375 -3.875 Z M 3.9375 -3.875 "/>
</g>
<g id="glyph-1-15">
<path d="M 3.984375 -1.625 L 3.984375 -2.734375 L 2.828125 -2.734375 C 2.378906 -2.734375 2.046875 -2.632812 1.828125 -2.4375 C 1.609375 -2.25 1.5 -1.957031 1.5 -1.5625 C 1.5 -1.195312 1.609375 -0.90625 1.828125 -0.6875 C 2.046875 -0.476562 2.347656 -0.375 2.734375 -0.375 C 3.109375 -0.375 3.410156 -0.488281 3.640625 -0.71875 C 3.867188 -0.957031 3.984375 -1.257812 3.984375 -1.625 Z M 4.875 -3.25 L 4.875 -0.515625 L 5.671875 -0.515625 L 5.671875 0 L 3.984375 0 L 3.984375 -0.5625 C 3.785156 -0.320312 3.554688 -0.144531 3.296875 -0.03125 C 3.035156 0.0820312 2.726562 0.140625 2.375 0.140625 C 1.800781 0.140625 1.34375 -0.0078125 1 -0.3125 C 0.664062 -0.625 0.5 -1.039062 0.5 -1.5625 C 0.5 -2.09375 0.691406 -2.503906 1.078125 -2.796875 C 1.460938 -3.097656 2.007812 -3.25 2.71875 -3.25 L 3.984375 -3.25 L 3.984375 -3.609375 C 3.984375 -4.003906 3.863281 -4.304688 3.625 -4.515625 C 3.382812 -4.734375 3.046875 -4.84375 2.609375 -4.84375 C 2.253906 -4.84375 1.96875 -4.757812 1.75 -4.59375 C 1.539062 -4.4375 1.410156 -4.195312 1.359375 -3.875 L 0.90625 -3.875 L 0.90625 -4.9375 C 1.21875 -5.0625 1.519531 -5.15625 1.8125 -5.21875 C 2.101562 -5.289062 2.390625 -5.328125 2.671875 -5.328125 C 3.390625 -5.328125 3.9375 -5.148438 4.3125 -4.796875 C 4.6875 -4.441406 4.875 -3.925781 4.875 -3.25 Z M 4.875 -3.25 "/>
</g>
<g id="glyph-1-16">
<path d="M 1.078125 -4.671875 L 0.28125 -4.671875 L 0.28125 -5.1875 L 1.078125 -5.1875 L 1.078125 -6.796875 L 1.984375 -6.796875 L 1.984375 -5.1875 L 3.671875 -5.1875 L 3.671875 -4.671875 L 1.984375 -4.671875 L 1.984375 -1.375 C 1.984375 -0.9375 2.023438 -0.65625 2.109375 -0.53125 C 2.191406 -0.40625 2.347656 -0.34375 2.578125 -0.34375 C 2.816406 -0.34375 2.988281 -0.410156 3.09375 -0.546875 C 3.195312 -0.679688 3.253906 -0.90625 3.265625 -1.21875 L 3.9375 -1.21875 C 3.914062 -0.75 3.785156 -0.40625 3.546875 -0.1875 C 3.316406 0.03125 2.96875 0.140625 2.5 0.140625 C 1.976562 0.140625 1.609375 0.0234375 1.390625 -0.203125 C 1.179688 -0.429688 1.078125 -0.820312 1.078125 -1.375 Z M 1.078125 -4.671875 "/>
</g>
<g id="glyph-1-17">
<path d="M 5.421875 -2.5 L 1.546875 -2.5 L 1.546875 -2.46875 C 1.546875 -1.757812 1.675781 -1.226562 1.9375 -0.875 C 2.207031 -0.519531 2.597656 -0.34375 3.109375 -0.34375 C 3.503906 -0.34375 3.828125 -0.445312 4.078125 -0.65625 C 4.328125 -0.863281 4.503906 -1.171875 4.609375 -1.578125 L 5.328125 -1.578125 C 5.191406 -1.003906 4.925781 -0.570312 4.53125 -0.28125 C 4.144531 0 3.640625 0.140625 3.015625 0.140625 C 2.253906 0.140625 1.644531 -0.109375 1.1875 -0.609375 C 0.726562 -1.109375 0.5 -1.769531 0.5 -2.59375 C 0.5 -3.414062 0.722656 -4.078125 1.171875 -4.578125 C 1.628906 -5.078125 2.222656 -5.328125 2.953125 -5.328125 C 3.742188 -5.328125 4.347656 -5.082031 4.765625 -4.59375 C 5.179688 -4.113281 5.398438 -3.414062 5.421875 -2.5 Z M 4.359375 -3.015625 C 4.335938 -3.617188 4.207031 -4.070312 3.96875 -4.375 C 3.738281 -4.6875 3.398438 -4.84375 2.953125 -4.84375 C 2.546875 -4.84375 2.222656 -4.6875 1.984375 -4.375 C 1.742188 -4.070312 1.597656 -3.617188 1.546875 -3.015625 Z M 4.359375 -3.015625 "/>
</g>
<g id="glyph-1-18">
<path d="M 5.25 -4.671875 L 5.25 -0.109375 C 5.25 0.628906 5.039062 1.203125 4.625 1.609375 C 4.21875 2.015625 3.632812 2.21875 2.875 2.21875 C 2.539062 2.21875 2.21875 2.1875 1.90625 2.125 C 1.59375 2.0625 1.289062 1.96875 1 1.84375 L 1 0.765625 L 1.46875 0.765625 C 1.53125 1.097656 1.671875 1.34375 1.890625 1.5 C 2.109375 1.65625 2.421875 1.734375 2.828125 1.734375 C 3.347656 1.734375 3.726562 1.582031 3.96875 1.28125 C 4.21875 0.988281 4.34375 0.523438 4.34375 -0.109375 L 4.34375 -0.8125 C 4.175781 -0.488281 3.953125 -0.25 3.671875 -0.09375 C 3.398438 0.0625 3.066406 0.140625 2.671875 0.140625 C 2.035156 0.140625 1.515625 -0.109375 1.109375 -0.609375 C 0.703125 -1.117188 0.5 -1.78125 0.5 -2.59375 C 0.5 -3.40625 0.695312 -4.0625 1.09375 -4.5625 C 1.5 -5.070312 2.023438 -5.328125 2.671875 -5.328125 C 3.066406 -5.328125 3.398438 -5.25 3.671875 -5.09375 C 3.953125 -4.945312 4.175781 -4.707031 4.34375 -4.375 L 4.34375 -5.1875 L 6.109375 -5.1875 L 6.109375 -4.671875 Z M 4.34375 -2.859375 C 4.34375 -3.472656 4.222656 -3.941406 3.984375 -4.265625 C 3.753906 -4.597656 3.410156 -4.765625 2.953125 -4.765625 C 2.484375 -4.765625 2.128906 -4.582031 1.890625 -4.21875 C 1.660156 -3.851562 1.546875 -3.3125 1.546875 -2.59375 C 1.546875 -1.882812 1.660156 -1.34375 1.890625 -0.96875 C 2.128906 -0.601562 2.484375 -0.421875 2.953125 -0.421875 C 3.410156 -0.421875 3.753906 -0.582031 3.984375 -0.90625 C 4.222656 -1.238281 4.34375 -1.71875 4.34375 -2.34375 Z M 4.34375 -2.859375 "/>
</g>
<g id="glyph-1-19">
<path d="M 4.78125 -5.203125 L 4.78125 -3.90625 L 4.265625 -3.90625 C 4.242188 -4.15625 4.171875 -4.34375 4.046875 -4.46875 C 3.921875 -4.601562 3.734375 -4.671875 3.484375 -4.671875 C 3.046875 -4.671875 2.707031 -4.515625 2.46875 -4.203125 C 2.238281 -3.898438 2.125 -3.460938 2.125 -2.890625 L 2.125 -0.515625 L 3.15625 -0.515625 L 3.15625 0 L 0.40625 0 L 0.40625 -0.515625 L 1.21875 -0.515625 L 1.21875 -4.671875 L 0.359375 -4.671875 L 0.359375 -5.1875 L 2.125 -5.1875 L 2.125 -4.265625 C 2.300781 -4.628906 2.523438 -4.894531 2.796875 -5.0625 C 3.078125 -5.238281 3.414062 -5.328125 3.8125 -5.328125 C 3.957031 -5.328125 4.109375 -5.316406 4.265625 -5.296875 C 4.429688 -5.273438 4.601562 -5.242188 4.78125 -5.203125 Z M 4.78125 -5.203125 "/>
</g>
<g id="glyph-1-20">
<path d="M 2.15625 0.953125 L 2.5 0.09375 L 0.5625 -4.671875 L -0.03125 -4.671875 L -0.03125 -5.1875 L 2.359375 -5.1875 L 2.359375 -4.671875 L 1.53125 -4.671875 L 2.984375 -1.09375 L 4.453125 -4.671875 L 3.671875 -4.671875 L 3.671875 -5.1875 L 5.625 -5.1875 L 5.625 -4.671875 L 5.046875 -4.671875 L 2.65625 1.171875 C 2.5 1.578125 2.320312 1.851562 2.125 2 C 1.925781 2.144531 1.644531 2.21875 1.28125 2.21875 C 1.125 2.21875 0.960938 2.203125 0.796875 2.171875 C 0.640625 2.148438 0.484375 2.117188 0.328125 2.078125 L 0.328125 1.078125 L 0.78125 1.078125 C 0.800781 1.296875 0.859375 1.453125 0.953125 1.546875 C 1.046875 1.648438 1.1875 1.703125 1.375 1.703125 C 1.5625 1.703125 1.707031 1.648438 1.8125 1.546875 C 1.925781 1.453125 2.039062 1.253906 2.15625 0.953125 Z M 2.15625 0.953125 "/>
</g>
<g id="glyph-1-21">
<path d="M 5.640625 -6.796875 L 2.78125 0 L 2.0625 0 L 4.78125 -6.484375 L 1.40625 -6.484375 L 1.40625 -5.59375 L 0.84375 -5.59375 L 0.84375 -7.296875 L 5.640625 -7.296875 Z M 5.640625 -6.796875 "/>
</g>
<g id="glyph-1-22">
<path d="M 2.46875 0 L 0.5625 -4.671875 L -0.03125 -4.671875 L -0.03125 -5.1875 L 2.359375 -5.1875 L 2.359375 -4.671875 L 1.53125 -4.671875 L 2.984375 -1.09375 L 4.453125 -4.671875 L 3.671875 -4.671875 L 3.671875 -5.1875 L 5.625 -5.1875 L 5.625 -4.671875 L 5.046875 -4.671875 L 3.125 0 Z M 2.46875 0 "/>
</g>
<g id="glyph-1-23">
<path d="M 2.046875 -0.515625 L 2.90625 -0.515625 L 2.90625 0 L 0.28125 0 L 0.28125 -0.515625 L 1.15625 -0.515625 L 1.15625 -7.078125 L 0.28125 -7.078125 L 0.28125 -7.59375 L 2.046875 -7.59375 Z M 2.046875 -0.515625 "/>
</g>
<g id="glyph-1-24">
<path d="M 3.546875 -5.1875 L 5.21875 -5.1875 L 5.21875 -0.515625 L 6.0625 -0.515625 L 6.0625 0 L 4.328125 0 L 4.328125 -0.921875 C 4.160156 -0.578125 3.941406 -0.3125 3.671875 -0.125 C 3.410156 0.0507812 3.109375 0.140625 2.765625 0.140625 C 2.179688 0.140625 1.753906 -0.0195312 1.484375 -0.34375 C 1.210938 -0.675781 1.078125 -1.191406 1.078125 -1.890625 L 1.078125 -4.671875 L 0.265625 -4.671875 L 0.265625 -5.1875 L 1.984375 -5.1875 L 1.984375 -2.171875 C 1.984375 -1.535156 2.0625 -1.097656 2.21875 -0.859375 C 2.375 -0.628906 2.648438 -0.515625 3.046875 -0.515625 C 3.460938 -0.515625 3.78125 -0.664062 4 -0.96875 C 4.21875 -1.28125 4.328125 -1.726562 4.328125 -2.3125 L 4.328125 -4.671875 L 3.546875 -4.671875 Z M 3.546875 -5.1875 "/>
</g>
<g id="glyph-2-0">
<path d="M 0.640625 0 L 0.03125 0 L 2.3125 -2.484375 L 1.171875 -4.671875 L 0.53125 -4.671875 L 0.625 -5.1875 L 1.9375 -5.1875 L 3.015625 -3.171875 L 4.890625 -5.1875 L 5.5 -5.1875 L 3.25 -2.75 L 4.4375 -0.515625 L 5.109375 -0.515625 L 5.015625 0 L 3.65625 0 L 2.546875 -2.078125 Z M 0.640625 0 "/>
</g>
<g id="glyph-3-0">
<path d="M -1.625 -3.984375 L -2.734375 -3.984375 L -2.734375 -2.828125 C -2.734375 -2.378906 -2.632812 -2.046875 -2.4375 -1.828125 C -2.25 -1.609375 -1.957031 -1.5 -1.5625 -1.5 C -1.195312 -1.5 -0.90625 -1.609375 -0.6875 -1.828125 C -0.476562 -2.046875 -0.375 -2.347656 -0.375 -2.734375 C -0.375 -3.109375 -0.488281 -3.410156 -0.71875 -3.640625 C -0.957031 -3.867188 -1.257812 -3.984375 -1.625 -3.984375 Z M -3.25 -4.875 L -0.515625 -4.875 L -0.515625 -5.671875 L 0 -5.671875 L 0 -3.984375 L -0.5625 -3.984375 C -0.320312 -3.785156 -0.144531 -3.554688 -0.03125 -3.296875 C 0.0820312 -3.035156 0.140625 -2.726562 0.140625 -2.375 C 0.140625 -1.800781 -0.0078125 -1.34375 -0.3125 -1 C -0.625 -0.664062 -1.039062 -0.5 -1.5625 -0.5 C -2.09375 -0.5 -2.503906 -0.691406 -2.796875 -1.078125 C -3.097656 -1.460938 -3.25 -2.007812 -3.25 -2.71875 L -3.25 -3.984375 L -3.609375 -3.984375 C -4.003906 -3.984375 -4.304688 -3.863281 -4.515625 -3.625 C -4.734375 -3.382812 -4.84375 -3.046875 -4.84375 -2.609375 C -4.84375 -2.253906 -4.757812 -1.96875 -4.59375 -1.75 C -4.4375 -1.539062 -4.195312 -1.410156 -3.875 -1.359375 L -3.875 -0.90625 L -4.9375 -0.90625 C -5.0625 -1.21875 -5.15625 -1.519531 -5.21875 -1.8125 C -5.289062 -2.101562 -5.328125 -2.390625 -5.328125 -2.671875 C -5.328125 -3.390625 -5.148438 -3.9375 -4.796875 -4.3125 C -4.441406 -4.6875 -3.925781 -4.875 -3.25 -4.875 Z M -3.25 -4.875 "/>
</g>
<g id="glyph-3-1">
<path d="M -4.1875 -5.1875 C -4.5625 -5.351562 -4.84375 -5.570312 -5.03125 -5.84375 C -5.226562 -6.113281 -5.328125 -6.425781 -5.328125 -6.78125 C -5.328125 -7.320312 -5.160156 -7.726562 -4.828125 -8 C -4.492188 -8.269531 -3.984375 -8.40625 -3.296875 -8.40625 L -0.515625 -8.40625 L -0.515625 -9.203125 L 0 -9.203125 L 0 -6.71875 L -0.515625 -6.71875 L -0.515625 -7.5 L -3.203125 -7.5 C -3.734375 -7.5 -4.109375 -7.421875 -4.328125 -7.265625 C -4.554688 -7.109375 -4.671875 -6.847656 -4.671875 -6.484375 C -4.671875 -6.085938 -4.519531 -5.785156 -4.21875 -5.578125 C -3.914062 -5.367188 -3.472656 -5.265625 -2.890625 -5.265625 L -0.515625 -5.265625 L -0.515625 -6.046875 L 0 -6.046875 L 0 -3.578125 L -0.515625 -3.578125 L -0.515625 -4.359375 L -3.234375 -4.359375 C -3.753906 -4.359375 -4.125 -4.28125 -4.34375 -4.125 C -4.5625 -3.96875 -4.671875 -3.707031 -4.671875 -3.34375 C -4.671875 -2.945312 -4.519531 -2.644531 -4.21875 -2.4375 C -3.914062 -2.226562 -3.472656 -2.125 -2.890625 -2.125 L -0.515625 -2.125 L -0.515625 -2.90625 L 0 -2.90625 L 0 -0.40625 L -0.515625 -0.40625 L -0.515625 -1.21875 L -4.671875 -1.21875 L -4.671875 -0.359375 L -5.1875 -0.359375 L -5.1875 -2.125 L -4.265625 -2.125 C -4.609375 -2.289062 -4.867188 -2.5 -5.046875 -2.75 C -5.234375 -3.007812 -5.328125 -3.300781 -5.328125 -3.625 C -5.328125 -4.03125 -5.226562 -4.367188 -5.03125 -4.640625 C -4.832031 -4.910156 -4.550781 -5.09375 -4.1875 -5.1875 Z M -4.1875 -5.1875 "/>
</g>
<g id="glyph-3-2">
<path d="M -2.859375 -2.046875 L -2.34375 -2.046875 C -1.71875 -2.046875 -1.238281 -2.164062 -0.90625 -2.40625 C -0.582031 -2.644531 -0.421875 -2.992188 -0.421875 -3.453125 C -0.421875 -3.910156 -0.601562 -4.253906 -0.96875 -4.484375 C -1.34375 -4.722656 -1.882812 -4.84375 -2.59375 -4.84375 C -3.3125 -4.84375 -3.851562 -4.722656 -4.21875 -4.484375 C -4.582031 -4.253906 -4.765625 -3.910156 -4.765625 -3.453125 C -4.765625 -2.992188 -4.597656 -2.644531 -4.265625 -2.40625 C -3.941406 -2.164062 -3.472656 -2.046875 -2.859375 -2.046875 Z M -4.671875 -1.15625 L -4.671875 -0.28125 L -5.1875 -0.28125 L -5.1875 -2.046875 L -4.375 -2.046875 C -4.707031 -2.222656 -4.945312 -2.445312 -5.09375 -2.71875 C -5.25 -2.988281 -5.328125 -3.328125 -5.328125 -3.734375 C -5.328125 -4.367188 -5.070312 -4.890625 -4.5625 -5.296875 C -4.0625 -5.703125 -3.40625 -5.90625 -2.59375 -5.90625 C -1.78125 -5.90625 -1.117188 -5.703125 -0.609375 -5.296875 C -0.109375 -4.890625 0.140625 -4.367188 0.140625 -3.734375 C 0.140625 -3.328125 0.0625 -2.988281 -0.09375 -2.71875 C -0.25 -2.445312 -0.488281 -2.222656 -0.8125 -2.046875 L 1.5625 -2.046875 L 1.5625 -2.90625 L 2.078125 -2.90625 L 2.078125 -0.28125 L 1.5625 -0.28125 L 1.5625 -1.15625 Z M -4.671875 -1.15625 "/>
</g>
<g id="glyph-3-3">
<path d="M -0.515625 -2.046875 L -0.515625 -2.90625 L 0 -2.90625 L 0 -0.28125 L -0.515625 -0.28125 L -0.515625 -1.15625 L -7.078125 -1.15625 L -7.078125 -0.28125 L -7.59375 -0.28125 L -7.59375 -2.046875 Z M -0.515625 -2.046875 "/>
</g>
<g id="glyph-3-4">
<path d="M -6.796875 -0.96875 C -6.953125 -0.96875 -7.082031 -1.019531 -7.1875 -1.125 C -7.300781 -1.238281 -7.359375 -1.375 -7.359375 -1.53125 C -7.359375 -1.675781 -7.300781 -1.800781 -7.1875 -1.90625 C -7.082031 -2.019531 -6.953125 -2.078125 -6.796875 -2.078125 C -6.648438 -2.078125 -6.519531 -2.023438 -6.40625 -1.921875 C -6.300781 -1.816406 -6.25 -1.6875 -6.25 -1.53125 C -6.25 -1.375 -6.300781 -1.238281 -6.40625 -1.125 C -6.519531 -1.019531 -6.648438 -0.96875 -6.796875 -0.96875 Z M -0.515625 -2.125 L -0.515625 -2.96875 L 0 -2.96875 L 0 -0.359375 L -0.515625 -0.359375 L -0.515625 -1.21875 L -4.671875 -1.21875 L -4.671875 -0.359375 L -5.1875 -0.359375 L -5.1875 -2.125 Z M -0.515625 -2.125 "/>
</g>
<g id="glyph-3-5">
<path d="M -4.671875 -1.078125 L -4.671875 -0.28125 L -5.1875 -0.28125 L -5.1875 -1.078125 L -6.796875 -1.078125 L -6.796875 -1.984375 L -5.1875 -1.984375 L -5.1875 -3.671875 L -4.671875 -3.671875 L -4.671875 -1.984375 L -1.375 -1.984375 C -0.9375 -1.984375 -0.65625 -2.023438 -0.53125 -2.109375 C -0.40625 -2.191406 -0.34375 -2.347656 -0.34375 -2.578125 C -0.34375 -2.816406 -0.410156 -2.988281 -0.546875 -3.09375 C -0.679688 -3.195312 -0.90625 -3.253906 -1.21875 -3.265625 L -1.21875 -3.9375 C -0.75 -3.914062 -0.40625 -3.785156 -0.1875 -3.546875 C 0.03125 -3.316406 0.140625 -2.96875 0.140625 -2.5 C 0.140625 -1.976562 0.0234375 -1.609375 -0.203125 -1.390625 C -0.429688 -1.179688 -0.820312 -1.078125 -1.375 -1.078125 Z M -4.671875 -1.078125 "/>
</g>
<g id="glyph-3-6">
<path d="M -5.1875 -3.546875 L -5.1875 -5.21875 L -0.515625 -5.21875 L -0.515625 -6.0625 L 0 -6.0625 L 0 -4.328125 L -0.921875 -4.328125 C -0.578125 -4.160156 -0.3125 -3.941406 -0.125 -3.671875 C 0.0507812 -3.410156 0.140625 -3.109375 0.140625 -2.765625 C 0.140625 -2.179688 -0.0195312 -1.753906 -0.34375 -1.484375 C -0.675781 -1.210938 -1.191406 -1.078125 -1.890625 -1.078125 L -4.671875 -1.078125 L -4.671875 -0.265625 L -5.1875 -0.265625 L -5.1875 -1.984375 L -2.171875 -1.984375 C -1.535156 -1.984375 -1.097656 -2.0625 -0.859375 -2.21875 C -0.628906 -2.375 -0.515625 -2.648438 -0.515625 -3.046875 C -0.515625 -3.460938 -0.664062 -3.78125 -0.96875 -4 C -1.28125 -4.21875 -1.726562 -4.328125 -2.3125 -4.328125 L -4.671875 -4.328125 L -4.671875 -3.546875 Z M -5.1875 -3.546875 "/>
</g>
<g id="glyph-3-7">
<path d="M -0.515625 -5.25 L -0.515625 -6.109375 L 0 -6.109375 L 0 -4.34375 L -0.8125 -4.34375 C -0.488281 -4.175781 -0.25 -3.953125 -0.09375 -3.671875 C 0.0625 -3.398438 0.140625 -3.066406 0.140625 -2.671875 C 0.140625 -2.035156 -0.109375 -1.515625 -0.609375 -1.109375 C -1.117188 -0.703125 -1.78125 -0.5 -2.59375 -0.5 C -3.40625 -0.5 -4.0625 -0.695312 -4.5625 -1.09375 C -5.070312 -1.5 -5.328125 -2.023438 -5.328125 -2.671875 C -5.328125 -3.066406 -5.25 -3.398438 -5.09375 -3.671875 C -4.945312 -3.953125 -4.707031 -4.175781 -4.375 -4.34375 L -7.078125 -4.34375 L -7.078125 -3.5 L -7.59375 -3.5 L -7.59375 -5.25 Z M -2.34375 -4.34375 L -2.859375 -4.34375 C -3.472656 -4.34375 -3.941406 -4.222656 -4.265625 -3.984375 C -4.597656 -3.753906 -4.765625 -3.410156 -4.765625 -2.953125 C -4.765625 -2.484375 -4.582031 -2.128906 -4.21875 -1.890625 C -3.851562 -1.660156 -3.3125 -1.546875 -2.59375 -1.546875 C -1.882812 -1.546875 -1.34375 -1.660156 -0.96875 -1.890625 C -0.601562 -2.128906 -0.421875 -2.484375 -0.421875 -2.953125 C -0.421875 -3.410156 -0.582031 -3.753906 -0.90625 -3.984375 C -1.238281 -4.222656 -1.71875 -4.34375 -2.34375 -4.34375 Z M -2.34375 -4.34375 "/>
</g>
<g id="glyph-3-8">
<path d="M -2.5 -5.421875 L -2.5 -1.546875 L -2.46875 -1.546875 C -1.757812 -1.546875 -1.226562 -1.675781 -0.875 -1.9375 C -0.519531 -2.207031 -0.34375 -2.597656 -0.34375 -3.109375 C -0.34375 -3.503906 -0.445312 -3.828125 -0.65625 -4.078125 C -0.863281 -4.328125 -1.171875 -4.503906 -1.578125 -4.609375 L -1.578125 -5.328125 C -1.003906 -5.191406 -0.570312 -4.925781 -0.28125 -4.53125 C 0 -4.144531 0.140625 -3.640625 0.140625 -3.015625 C 0.140625 -2.253906 -0.109375 -1.644531 -0.609375 -1.1875 C -1.109375 -0.726562 -1.769531 -0.5 -2.59375 -0.5 C -3.414062 -0.5 -4.078125 -0.722656 -4.578125 -1.171875 C -5.078125 -1.628906 -5.328125 -2.222656 -5.328125 -2.953125 C -5.328125 -3.742188 -5.082031 -4.347656 -4.59375 -4.765625 C -4.113281 -5.179688 -3.414062 -5.398438 -2.5 -5.421875 Z M -3.015625 -4.359375 C -3.617188 -4.335938 -4.070312 -4.207031 -4.375 -3.96875 C -4.6875 -3.738281 -4.84375 -3.398438 -4.84375 -2.953125 C -4.84375 -2.546875 -4.6875 -2.222656 -4.375 -1.984375 C -4.070312 -1.742188 -3.617188 -1.597656 -3.015625 -1.546875 Z M -3.015625 -4.359375 "/>
</g>
<g id="glyph-3-9">
<path d="M -0.28125 -0.5625 L -1.5 -0.5625 L -1.5 -1.078125 C -1.113281 -1.085938 -0.820312 -1.207031 -0.625 -1.4375 C -0.4375 -1.664062 -0.34375 -2.007812 -0.34375 -2.46875 C -0.34375 -2.863281 -0.414062 -3.164062 -0.5625 -3.375 C -0.71875 -3.59375 -0.941406 -3.703125 -1.234375 -3.703125 C -1.460938 -3.703125 -1.644531 -3.625 -1.78125 -3.46875 C -1.925781 -3.3125 -2.078125 -2.984375 -2.234375 -2.484375 L -2.453125 -1.84375 C -2.597656 -1.394531 -2.773438 -1.070312 -2.984375 -0.875 C -3.203125 -0.675781 -3.476562 -0.578125 -3.8125 -0.578125 C -4.28125 -0.578125 -4.648438 -0.75 -4.921875 -1.09375 C -5.191406 -1.4375 -5.328125 -1.921875 -5.328125 -2.546875 C -5.328125 -2.816406 -5.289062 -3.101562 -5.21875 -3.40625 C -5.15625 -3.707031 -5.050781 -4.019531 -4.90625 -4.34375 L -3.78125 -4.34375 L -3.78125 -3.828125 C -4.113281 -3.804688 -4.375 -3.6875 -4.5625 -3.46875 C -4.75 -3.25 -4.84375 -2.945312 -4.84375 -2.5625 C -4.84375 -2.1875 -4.773438 -1.898438 -4.640625 -1.703125 C -4.515625 -1.515625 -4.316406 -1.421875 -4.046875 -1.421875 C -3.828125 -1.421875 -3.648438 -1.492188 -3.515625 -1.640625 C -3.390625 -1.785156 -3.257812 -2.078125 -3.125 -2.515625 L -2.90625 -3.234375 C -2.75 -3.722656 -2.554688 -4.078125 -2.328125 -4.296875 C -2.097656 -4.515625 -1.800781 -4.625 -1.4375 -4.625 C -0.945312 -4.625 -0.5625 -4.429688 -0.28125 -4.046875 C 0 -3.671875 0.140625 -3.15625 0.140625 -2.5 C 0.140625 -2.164062 0.101562 -1.835938 0.03125 -1.515625 C -0.0390625 -1.203125 -0.144531 -0.882812 -0.28125 -0.5625 Z M -0.28125 -0.5625 "/>
</g>
<g id="glyph-3-10">
<path d="M 0 -0.40625 L -0.515625 -0.40625 L -0.515625 -1.21875 L -4.671875 -1.21875 L -4.671875 -0.359375 L -5.1875 -0.359375 L -5.1875 -2.125 L -4.265625 -2.125 C -4.617188 -2.289062 -4.882812 -2.503906 -5.0625 -2.765625 C -5.238281 -3.035156 -5.328125 -3.34375 -5.328125 -3.6875 C -5.328125 -4.257812 -5.160156 -4.679688 -4.828125 -4.953125 C -4.503906 -5.222656 -3.992188 -5.359375 -3.296875 -5.359375 L -0.515625 -5.359375 L -0.515625 -6.15625 L 0 -6.15625 L 0 -3.6875 L -0.515625 -3.6875 L -0.515625 -4.453125 L -3.015625 -4.453125 C -3.648438 -4.453125 -4.082031 -4.375 -4.3125 -4.21875 C -4.550781 -4.0625 -4.671875 -3.789062 -4.671875 -3.40625 C -4.671875 -2.988281 -4.519531 -2.671875 -4.21875 -2.453125 C -3.914062 -2.234375 -3.472656 -2.125 -2.890625 -2.125 L -0.515625 -2.125 L -0.515625 -2.90625 L 0 -2.90625 Z M 0 -0.40625 "/>
</g>
<g id="glyph-3-11">
<path d="M 0 -2.46875 L -4.671875 -0.5625 L -4.671875 0.03125 L -5.1875 0.03125 L -5.1875 -2.359375 L -4.671875 -2.359375 L -4.671875 -1.53125 L -1.09375 -2.984375 L -4.671875 -4.453125 L -4.671875 -3.671875 L -5.1875 -3.671875 L -5.1875 -5.625 L -4.671875 -5.625 L -4.671875 -5.046875 L 0 -3.125 Z M 0 -2.46875 "/>
</g>
<g id="glyph-4-0">
<path d="M 2.703125 1.5625 C 2.035156 1.207031 1.53125 0.644531 1.1875 -0.125 C 0.84375 -0.894531 0.671875 -1.859375 0.671875 -3.015625 C 0.671875 -4.171875 0.84375 -5.132812 1.1875 -5.90625 C 1.53125 -6.675781 2.035156 -7.238281 2.703125 -7.59375 L 2.703125 -7.125 C 2.285156 -6.78125 1.984375 -6.289062 1.796875 -5.65625 C 1.609375 -5.03125 1.515625 -4.148438 1.515625 -3.015625 C 1.515625 -1.878906 1.609375 -1 1.796875 -0.375 C 1.984375 0.25 2.285156 0.734375 2.703125 1.078125 Z M 2.703125 1.5625 "/>
</g>
<g id="glyph-4-1">
<path d="M 0.609375 1.5625 L 0.609375 1.078125 C 1.023438 0.734375 1.328125 0.25 1.515625 -0.375 C 1.703125 -1 1.796875 -1.878906 1.796875 -3.015625 C 1.796875 -4.148438 1.703125 -5.03125 1.515625 -5.65625 C 1.328125 -6.289062 1.023438 -6.78125 0.609375 -7.125 L 0.609375 -7.59375 C 1.273438 -7.238281 1.78125 -6.675781 2.125 -5.90625 C 2.46875 -5.132812 2.640625 -4.171875 2.640625 -3.015625 C 2.640625 -1.859375 2.46875 -0.894531 2.125 -0.125 C 1.78125 0.644531 1.273438 1.207031 0.609375 1.5625 Z M 0.609375 1.5625 "/>
</g>
<g id="glyph-5-0">
<path d="M -3.328125 -0.765625 L -3.328125 -0.4375 L -4.109375 -0.4375 C -4.222656 -0.644531 -4.304688 -0.851562 -4.359375 -1.0625 C -4.421875 -1.28125 -4.453125 -1.488281 -4.453125 -1.6875 C -4.453125 -2.144531 -4.34375 -2.503906 -4.125 -2.765625 C -3.90625 -3.035156 -3.601562 -3.171875 -3.21875 -3.171875 C -2.789062 -3.171875 -2.28125 -2.867188 -1.6875 -2.265625 C -1.644531 -2.222656 -1.609375 -2.191406 -1.578125 -2.171875 L -0.484375 -1.0625 L -0.484375 -2.890625 L -1.015625 -2.890625 L -1.015625 -3.234375 L 0 -3.234375 L 0 -0.40625 L -0.3125 -0.40625 L -1.640625 -1.734375 C -1.929688 -2.023438 -2.195312 -2.234375 -2.4375 -2.359375 C -2.6875 -2.484375 -2.945312 -2.546875 -3.21875 -2.546875 C -3.519531 -2.546875 -3.75 -2.46875 -3.90625 -2.3125 C -4.070312 -2.164062 -4.15625 -1.957031 -4.15625 -1.6875 C -4.15625 -1.40625 -4.085938 -1.1875 -3.953125 -1.03125 C -3.816406 -0.882812 -3.609375 -0.796875 -3.328125 -0.765625 Z M -3.328125 -0.765625 "/>
</g>
<g id="glyph-6-0">
<path d="M 1.5625 -2.703125 C 1.207031 -2.035156 0.644531 -1.53125 -0.125 -1.1875 C -0.894531 -0.84375 -1.859375 -0.671875 -3.015625 -0.671875 C -4.171875 -0.671875 -5.132812 -0.84375 -5.90625 -1.1875 C -6.675781 -1.53125 -7.238281 -2.035156 -7.59375 -2.703125 L -7.125 -2.703125 C -6.78125 -2.285156 -6.289062 -1.984375 -5.65625 -1.796875 C -5.03125 -1.609375 -4.148438 -1.515625 -3.015625 -1.515625 C -1.878906 -1.515625 -1 -1.609375 -0.375 -1.796875 C 0.25 -1.984375 0.734375 -2.285156 1.078125 -2.703125 Z M 1.5625 -2.703125 "/>
</g>
<g id="glyph-6-1">
<path d="M 1.5625 -0.609375 L 1.078125 -0.609375 C 0.734375 -1.023438 0.25 -1.328125 -0.375 -1.515625 C -1 -1.703125 -1.878906 -1.796875 -3.015625 -1.796875 C -4.148438 -1.796875 -5.03125 -1.703125 -5.65625 -1.515625 C -6.289062 -1.328125 -6.78125 -1.023438 -7.125 -0.609375 L -7.59375 -0.609375 C -7.238281 -1.273438 -6.675781 -1.78125 -5.90625 -2.125 C -5.132812 -2.46875 -4.171875 -2.640625 -3.015625 -2.640625 C -1.859375 -2.640625 -0.894531 -2.46875 -0.125 -2.125 C 0.644531 -1.78125 1.207031 -1.273438 1.5625 -0.609375 Z M 1.5625 -0.609375 "/>
</g>
<g id="glyph-7-0">
<path d="M 0 -0.640625 L 0 -0.03125 L -2.484375 -2.3125 L -4.671875 -1.171875 L -4.671875 -0.53125 L -5.1875 -0.625 L -5.1875 -1.9375 L -3.171875 -3.015625 L -5.1875 -4.890625 L -5.1875 -5.5 L -2.75 -3.25 L -0.515625 -4.4375 L -0.515625 -5.109375 L 0 -5.015625 L 0 -3.65625 L -2.078125 -2.546875 Z M 0 -0.640625 "/>
</g>
<g id="glyph-8-0">
<path d="M 0.765625 -3.328125 L 0.4375 -3.328125 L 0.4375 -4.109375 C 0.644531 -4.222656 0.851562 -4.304688 1.0625 -4.359375 C 1.28125 -4.421875 1.488281 -4.453125 1.6875 -4.453125 C 2.144531 -4.453125 2.503906 -4.34375 2.765625 -4.125 C 3.035156 -3.90625 3.171875 -3.601562 3.171875 -3.21875 C 3.171875 -2.789062 2.867188 -2.28125 2.265625 -1.6875 C 2.222656 -1.644531 2.191406 -1.609375 2.171875 -1.578125 L 1.0625 -0.484375 L 2.890625 -0.484375 L 2.890625 -1.015625 L 3.234375 -1.015625 L 3.234375 0 L 0.40625 0 L 0.40625 -0.3125 L 1.734375 -1.640625 C 2.023438 -1.929688 2.234375 -2.195312 2.359375 -2.4375 C 2.484375 -2.6875 2.546875 -2.945312 2.546875 -3.21875 C 2.546875 -3.519531 2.46875 -3.75 2.3125 -3.90625 C 2.164062 -4.070312 1.957031 -4.15625 1.6875 -4.15625 C 1.40625 -4.15625 1.1875 -4.085938 1.03125 -3.953125 C 0.882812 -3.816406 0.796875 -3.609375 0.765625 -3.328125 Z M 0.765625 -3.328125 "/>
</g>
</g>
</defs>
<path fill-rule="nonzero" fill="rgb(100%, 100%, 100%)" fill-opacity="1" d="M 0 0 L 510.234375 0 L 510.234375 255.117188 L 0 255.117188 Z M 0 0 "/>
<g fill="rgb(0%, 0%, 0%)" fill-opacity="1">
<use xlink:href="#glyph-0-0" x="210.6875" y="12.277344"/>
<use xlink:href="#glyph-0-1" x="221.1875" y="12.277344"/>
<use xlink:href="#glyph-0-2" x="228.289062" y="12.277344"/>
<use xlink:href="#glyph-0-3" x="234.447266" y="12.277344"/>
<use xlink:href="#glyph-0-1" x="239.269531" y="12.277344"/>
<use xlink:href="#glyph-0-4" x="246.371094" y="12.277344"/>
<use xlink:href="#glyph-0-5" x="254.052734" y="12.277344"/>
<use xlink:href="#glyph-0-6" x="257.867188" y="12.277344"/>
<use xlink:href="#glyph-0-7" x="265.835938" y="12.277344"/>
<use xlink:href="#glyph-0-8" x="272.990234" y="12.277344"/>
<use xlink:href="#glyph-0-9" x="279.769531" y="12.277344"/>
<use xlink:href="#glyph-0-10" x="286.994141" y="12.277344"/>
<use xlink:href="#glyph-0-3" x="294.722656" y="12.277344"/>
</g>
<g fill="rgb(0%, 0%, 0%)" fill-opacity="1">
<use xlink:href="#glyph-0-11" x="120.996094" y="32.5625"/>
<use xlink:href="#glyph-0-12" x="130.582031" y="32.5625"/>
<use xlink:href="#glyph-0-9" x="136.318359" y="32.5625"/>
<use xlink:href="#glyph-0-10" x="143.542969" y="32.5625"/>
<use xlink:href="#glyph-0-13" x="151.271484" y="32.5625"/>
<use xlink:href="#glyph-0-1" x="158.953125" y="32.5625"/>
<use xlink:href="#glyph-0-4" x="166.054688" y="32.5625"/>
<use xlink:href="#glyph-0-5" x="173.736328" y="32.5625"/>
<use xlink:href="#glyph-0-14" x="177.550781" y="32.5625"/>
<use xlink:href="#glyph-0-15" x="186.732422" y="32.5625"/>
<use xlink:href="#glyph-0-7" x="194.460938" y="32.5625"/>
<use xlink:href="#glyph-0-12" x="201.615234" y="32.5625"/>
<use xlink:href="#glyph-0-3" x="207.351562" y="32.5625"/>
<use xlink:href="#glyph-0-2" x="212.173828" y="32.5625"/>
</g>
<g fill="rgb(0%, 0%, 0%)" fill-opacity="1">
<use xlink:href="#glyph-0-16" x="412.296875" y="32.90625"/>
<use xlink:href="#glyph-0-7" x="421.115234" y="32.90625"/>
<use xlink:href="#glyph-0-12" x="428.269531" y="32.90625"/>
<use xlink:href="#glyph-0-2" x="434.005859" y="32.90625"/>
</g>
<g fill="rgb(0%, 0%, 0%)" fill-opacity="1">
<use xlink:href="#glyph-0-17" x="128.035156" y="53.441406"/>
<use xlink:href="#glyph-0-12" x="136.039062" y="53.441406"/>
<use xlink:href="#glyph-0-18" x="141.775391" y="53.441406"/>
<use xlink:href="#glyph-0-19" x="145.613281" y="53.441406"/>
<use xlink:href="#glyph-0-9" x="153.294922" y="53.441406"/>
<use xlink:href="#glyph-0-20" x="160.519531" y="53.441406"/>
<use xlink:href="#glyph-0-9" x="168.248047" y="53.441406"/>
<use xlink:href="#glyph-0-21" x="175.472656" y="53.441406"/>
<use xlink:href="#glyph-0-1" x="186.851562" y="53.441406"/>
<use xlink:href="#glyph-0-3" x="193.953125" y="53.441406"/>
<use xlink:href="#glyph-0-12" x="198.775391" y="53.441406"/>
<use xlink:href="#glyph-0-8" x="204.511719" y="53.441406"/>
</g>
<g fill="rgb(0%, 0%, 0%)" fill-opacity="1">
<use xlink:href="#glyph-0-22" x="65.929688" y="73.785156"/>
<use xlink:href="#glyph-0-18" x="74.150391" y="73.785156"/>
<use xlink:href="#glyph-0-19" x="77.988281" y="73.785156"/>
<use xlink:href="#glyph-0-20" x="85.669922" y="73.785156"/>
<use xlink:href="#glyph-0-7" x="93.398438" y="73.785156"/>
<use xlink:href="#glyph-0-23" x="100.552734" y="73.785156"/>
</g>
<g fill="rgb(0%, 0%, 0%)" fill-opacity="1">
<use xlink:href="#glyph-0-24" x="232.269531" y="73.601562"/>
<use xlink:href="#glyph-0-20" x="241.029297" y="73.601562"/>
<use xlink:href="#glyph-0-1" x="248.757812" y="73.601562"/>
<use xlink:href="#glyph-0-12" x="255.859375" y="73.601562"/>
<use xlink:href="#glyph-0-19" x="261.595703" y="73.601562"/>
<use xlink:href="#glyph-0-8" x="269.277344" y="73.601562"/>
</g>
<path fill="none" stroke-width="0.2" stroke-linecap="butt" stroke-linejoin="miter" stroke="rgb(85%, 85%, 85%)" stroke-opacity="1" stroke-miterlimit="10" d="M 49.601562 105.351562 L 49.601562 220.847656 "/>
<path fill="none" stroke-width="0.2" stroke-linecap="butt" stroke-linejoin="miter" stroke="rgb(85%, 85%, 85%)" stroke-opacity="1" stroke-miterlimit="10" d="M 67.382812 105.351562 L 67.382812 220.847656 "/>
<path fill="none" stroke-width="0.2" stroke-linecap="butt" stroke-linejoin="miter" stroke="rgb(85%, 85%, 85%)" stroke-opacity="1" stroke-miterlimit="10" d="M 85.160156 105.351562 L 85.160156 220.847656 "/>
<path fill="none" stroke-width="0.2" stroke-linecap="butt" stroke-linejoin="miter" stroke="rgb(85%, 85%, 85%)" stroke-opacity="1" stroke-miterlimit="10" d="M 102.9375 105.351562 L 102.9375 220.847656 "/>
<path fill="none" stroke-width="0.2" stroke-linecap="butt" stroke-linejoin="miter" stroke="rgb(85%, 85%, 85%)" stroke-opacity="1" stroke-miterlimit="10" d="M 120.71875 105.351562 L 120.71875 220.847656 "/>
<path fill="none" stroke-width="0.2" stroke-linecap="butt" stroke-linejoin="miter" stroke="rgb(85%, 85%, 85%)" stroke-opacity="1" stroke-miterlimit="10" d="M 138.496094 105.351562 L 138.496094 220.847656 "/>
<path fill="none" stroke-width="0.2" stroke-linecap="butt" stroke-linejoin="miter" stroke="rgb(85%, 85%, 85%)" stroke-opacity="1" stroke-miterlimit="10" d="M 156.273438 105.351562 L 156.273438 220.847656 "/>
<path fill="none" stroke-width="0.2" stroke-linecap="butt" stroke-linejoin="miter" stroke="rgb(85%, 85%, 85%)" stroke-opacity="1" stroke-miterlimit="10" d="M 46.269531 217.617188 L 164.050781 217.617188 "/>
<path fill="none" stroke-width="0.2" stroke-linecap="butt" stroke-linejoin="miter" stroke="rgb(85%, 85%, 85%)" stroke-opacity="1" stroke-miterlimit="10" d="M 46.269531 190.371094 L 164.050781 190.371094 "/>
<path fill="none" stroke-width="0.2" stroke-linecap="butt" stroke-linejoin="miter" stroke="rgb(85%, 85%, 85%)" stroke-opacity="1" stroke-miterlimit="10" d="M 46.269531 163.121094 L 164.050781 163.121094 "/>
<path fill="none" stroke-width="0.2" stroke-linecap="butt" stroke-linejoin="miter" stroke="rgb(85%, 85%, 85%)" stroke-opacity="1" stroke-miterlimit="10" d="M 46.269531 135.871094 L 164.050781 135.871094 "/>
<path fill="none" stroke-width="0.2" stroke-linecap="butt" stroke-linejoin="miter" stroke="rgb(85%, 85%, 85%)" stroke-opacity="1" stroke-miterlimit="10" d="M 46.269531 108.621094 L 164.050781 108.621094 "/>
<path fill="none" stroke-width="0.5" stroke-linecap="butt" stroke-linejoin="miter" stroke="rgb(0%, 0%, 0%)" stroke-opacity="1" stroke-miterlimit="10" d="M 46.269531 105.351562 L 164.050781 105.351562 L 164.050781 220.847656 L 46.269531 220.847656 Z M 46.269531 105.351562 "/>
<path fill="none" stroke-width="0.5" stroke-linecap="butt" stroke-linejoin="miter" stroke="rgb(0%, 0%, 0%)" stroke-opacity="1" stroke-miterlimit="10" d="M 49.601562 220.847656 L 49.601562 216.847656 "/>
<g fill="rgb(0%, 0%, 0%)" fill-opacity="1">
<use xlink:href="#glyph-1-0" x="46.421875" y="232.960938"/>
</g>
<path fill="none" stroke-width="0.5" stroke-linecap="butt" stroke-linejoin="miter" stroke="rgb(0%, 0%, 0%)" stroke-opacity="1" stroke-miterlimit="10" d="M 67.382812 220.847656 L 67.382812 216.847656 "/>
<g fill="rgb(0%, 0%, 0%)" fill-opacity="1">
<use xlink:href="#glyph-1-1" x="64.199219" y="232.960938"/>
</g>
<path fill="none" stroke-width="0.5" stroke-linecap="butt" stroke-linejoin="miter" stroke="rgb(0%, 0%, 0%)" stroke-opacity="1" stroke-miterlimit="10" d="M 85.160156 220.847656 L 85.160156 216.847656 "/>
<g fill="rgb(0%, 0%, 0%)" fill-opacity="1">
<use xlink:href="#glyph-1-2" x="81.980469" y="232.960938"/>
</g>
<path fill="none" stroke-width="0.5" stroke-linecap="butt" stroke-linejoin="miter" stroke="rgb(0%, 0%, 0%)" stroke-opacity="1" stroke-miterlimit="10" d="M 102.9375 220.847656 L 102.9375 216.847656 "/>
<g fill="rgb(0%, 0%, 0%)" fill-opacity="1">
<use xlink:href="#glyph-1-3" x="99.757812" y="232.960938"/>
</g>
<path fill="none" stroke-width="0.5" stroke-linecap="butt" stroke-linejoin="miter" stroke="rgb(0%, 0%, 0%)" stroke-opacity="1" stroke-miterlimit="10" d="M 120.71875 220.847656 L 120.71875 216.847656 "/>
<g fill="rgb(0%, 0%, 0%)" fill-opacity="1">
<use xlink:href="#glyph-1-4" x="117.535156" y="232.960938"/>
</g>
<path fill="none" stroke-width="0.5" stroke-linecap="butt" stroke-linejoin="miter" stroke="rgb(0%, 0%, 0%)" stroke-opacity="1" stroke-miterlimit="10" d="M 138.496094 220.847656 L 138.496094 216.847656 "/>
<g fill="rgb(0%, 0%, 0%)" fill-opacity="1">
<use xlink:href="#glyph-1-5" x="135.316406" y="232.894531"/>
</g>
<path fill="none" stroke-width="0.5" stroke-linecap="butt" stroke-linejoin="miter" stroke="rgb(0%, 0%, 0%)" stroke-opacity="1" stroke-miterlimit="10" d="M 156.273438 220.847656 L 156.273438 216.847656 "/>
<g fill="rgb(0%, 0%, 0%)" fill-opacity="1">
<use xlink:href="#glyph-1-6" x="153.09375" y="232.960938"/>
</g>
<g fill="rgb(0%, 0%, 0%)" fill-opacity="1">
<use xlink:href="#glyph-2-0" x="102.339844" y="246"/>
</g>
<path fill="none" stroke-width="0.5" stroke-linecap="butt" stroke-linejoin="miter" stroke="rgb(0%, 0%, 0%)" stroke-opacity="1" stroke-miterlimit="10" d="M 46.269531 217.617188 L 50.269531 217.617188 "/>
<g fill="rgb(0%, 0%, 0%)" fill-opacity="1">
<use xlink:href="#glyph-1-7" x="22.988281" y="221.417969"/>
<use xlink:href="#glyph-1-1" x="26.367188" y="221.417969"/>
<use xlink:href="#glyph-1-8" x="32.729492" y="221.417969"/>
<use xlink:href="#glyph-1-0" x="35.908203" y="221.417969"/>
</g>
<path fill="none" stroke-width="0.5" stroke-linecap="butt" stroke-linejoin="miter" stroke="rgb(0%, 0%, 0%)" stroke-opacity="1" stroke-miterlimit="10" d="M 46.269531 190.371094 L 50.269531 190.371094 "/>
<g fill="rgb(0%, 0%, 0%)" fill-opacity="1">
<use xlink:href="#glyph-1-7" x="22.988281" y="194.167969"/>
<use xlink:href="#glyph-1-0" x="26.367188" y="194.167969"/>
<use xlink:href="#glyph-1-8" x="32.729492" y="194.167969"/>
<use xlink:href="#glyph-1-5" x="35.908203" y="194.167969"/>
</g>
<path fill="none" stroke-width="0.5" stroke-linecap="butt" stroke-linejoin="miter" stroke="rgb(0%, 0%, 0%)" stroke-opacity="1" stroke-miterlimit="10" d="M 46.269531 163.121094 L 50.269531 163.121094 "/>
<g fill="rgb(0%, 0%, 0%)" fill-opacity="1">
<use xlink:href="#glyph-1-0" x="26.367188" y="166.921875"/>
<use xlink:href="#glyph-1-8" x="32.729492" y="166.921875"/>
<use xlink:href="#glyph-1-0" x="35.908203" y="166.921875"/>
</g>
<path fill="none" stroke-width="0.5" stroke-linecap="butt" stroke-linejoin="miter" stroke="rgb(0%, 0%, 0%)" stroke-opacity="1" stroke-miterlimit="10" d="M 46.269531 135.871094 L 50.269531 135.871094 "/>
<g fill="rgb(0%, 0%, 0%)" fill-opacity="1">
<use xlink:href="#glyph-1-0" x="26.367188" y="139.671875"/>
<use xlink:href="#glyph-1-8" x="32.729492" y="139.671875"/>
<use xlink:href="#glyph-1-5" x="35.908203" y="139.671875"/>
</g>
<path fill="none" stroke-width="0.5" stroke-linecap="butt" stroke-linejoin="miter" stroke="rgb(0%, 0%, 0%)" stroke-opacity="1" stroke-miterlimit="10" d="M 46.269531 108.621094 L 50.269531 108.621094 "/>
<g fill="rgb(0%, 0%, 0%)" fill-opacity="1">
<use xlink:href="#glyph-1-1" x="26.367188" y="112.421875"/>
<use xlink:href="#glyph-1-8" x="32.729492" y="112.421875"/>
<use xlink:href="#glyph-1-0" x="35.908203" y="112.421875"/>
</g>
<g fill="rgb(0%, 0%, 0%)" fill-opacity="1">
<use xlink:href="#glyph-3-0" x="18.027344" y="188.609375"/>
<use xlink:href="#glyph-3-1" x="18.027344" y="182.647461"/>
<use xlink:href="#glyph-3-2" x="18.027344" y="173.165039"/>
<use xlink:href="#glyph-3-3" x="18.027344" y="166.763672"/>
<use xlink:href="#glyph-3-4" x="18.027344" y="163.56543"/>
<use xlink:href="#glyph-3-5" x="18.027344" y="160.367188"/>
<use xlink:href="#glyph-3-6" x="18.027344" y="156.348633"/>
<use xlink:href="#glyph-3-7" x="18.027344" y="149.908203"/>
<use xlink:href="#glyph-3-8" x="18.027344" y="143.506836"/>
</g>
<path fill="none" stroke-width="0.5" stroke-linecap="butt" stroke-linejoin="round" stroke="rgb(76.9%, 30.6%, 32.2%)" stroke-opacity="1" stroke-miterlimit="10" d="M 49.601562 163.121094 L 54.046875 149.636719 L 58.492188 136.992188 L 62.9375 125.972656 L 67.382812 117.261719 L 71.824219 111.402344 L 76.269531 108.757812 L 80.714844 109.496094 L 85.160156 113.566406 L 89.605469 120.714844 L 94.050781 130.503906 L 98.492188 142.320312 L 102.9375 155.429688 L 107.382812 169.015625 L 111.828125 182.238281 L 116.273438 194.269531 L 120.71875 204.363281 L 125.160156 211.894531 L 129.605469 216.394531 L 134.050781 217.578125 L 138.496094 215.378906 L 142.941406 209.929688 L 147.386719 201.570312 L 151.828125 190.820312 L 156.273438 178.347656 L 160.71875 164.929688 "/>
<path fill="none" stroke-width="0.5" stroke-linecap="butt" stroke-linejoin="round" stroke="rgb(25.490196%, 41.176471%, 88.235294%)" stroke-opacity="1" stroke-dasharray="2 1.2" stroke-dashoffset="1.921201" stroke-miterlimit="10" d="M 49.601562 108.621094 L 54.046875 110.316406 L 58.492188 115.292969 L 62.9375 123.246094 L 67.382812 133.675781 L 71.824219 145.9375 L 76.269531 159.265625 L 80.714844 172.835938 L 85.160156 185.800781 L 89.605469 197.355469 L 94.050781 206.78125 L 98.492188 213.492188 L 102.9375 217.074219 L 107.382812 217.296875 L 111.828125 214.15625 L 116.273438 207.839844 L 120.71875 198.742188 L 125.160156 187.429688 L 129.605469 174.609375 L 134.050781 161.070312 L 138.496094 147.660156 L 142.941406 135.210938 L 147.386719 124.5 L 151.828125 116.1875 L 156.273438 110.792969 L 160.71875 108.652344 "/>
<g fill="rgb(0%, 0%, 0%)" fill-opacity="1">
<use xlink:href="#glyph-0-22" x="82.851562" y="94.394531"/>
<use xlink:href="#glyph-0-18" x="91.072266" y="94.394531"/>
<use xlink:href="#glyph-0-19" x="94.910156" y="94.394531"/>
<use xlink:href="#glyph-0-20" x="102.591797" y="94.394531"/>
<use xlink:href="#glyph-0-7" x="110.320312" y="94.394531"/>
<use xlink:href="#glyph-0-23" x="117.474609" y="94.394531"/>
<use xlink:href="#glyph-0-2" x="121.3125" y="94.394531"/>
</g>
<path fill-rule="nonzero" fill="rgb(100%, 100%, 100%)" fill-opacity="1" stroke-width="0.4" stroke-linecap="butt" stroke-linejoin="round" stroke="rgb(0%, 0%, 0%)" stroke-opacity="1" stroke-miterlimit="10" d="M 91.550781 188.808594 L 91.550781 214.039062 C 91.550781 216.347656 91.550781 216.347656 93.863281 216.347656 L 157.242188 216.347656 C 159.550781 216.347656 159.550781 216.347656 159.550781 214.039062 L 159.550781 188.808594 C 159.550781 186.5 159.550781 186.5 157.242188 186.5 L 93.863281 186.5 C 91.550781 186.5 91.550781 186.5 91.550781 188.808594 Z M 91.550781 188.808594 "/>
<path fill="none" stroke-width="0.5" stroke-linecap="butt" stroke-linejoin="round" stroke="rgb(76.9%, 30.6%, 32.2%)" stroke-opacity="1" stroke-miterlimit="10" d="M 96.050781 194.5 L 115.050781 194.5 "/>
<g fill="rgb(0%, 0%, 0%)" fill-opacity="1">
<use xlink:href="#glyph-1-9" x="124.050781" y="196.964844"/>
<use xlink:href="#glyph-1-10" x="129.182617" y="196.964844"/>
<use xlink:href="#glyph-1-11" x="132.380859" y="196.964844"/>
</g>
<g fill="rgb(0%, 0%, 0%)" fill-opacity="1">
<use xlink:href="#glyph-4-0" x="139.421875" y="197.835938"/>
</g>
<g fill="rgb(0%, 0%, 0%)" fill-opacity="1">
<use xlink:href="#glyph-2-0" x="142.738281" y="196.964844"/>
</g>
<g fill="rgb(0%, 0%, 0%)" fill-opacity="1">
<use xlink:href="#glyph-4-1" x="148.378906" y="197.835938"/>
</g>
<path fill="none" stroke-width="0.5" stroke-linecap="butt" stroke-linejoin="round" stroke="rgb(25.490196%, 41.176471%, 88.235294%)" stroke-opacity="1" stroke-dasharray="2 1.2" stroke-miterlimit="10" d="M 96.050781 207.5 L 115.050781 207.5 "/>
<g fill="rgb(0%, 0%, 0%)" fill-opacity="1">
<use xlink:href="#glyph-1-12" x="124.050781" y="209.648438"/>
<use xlink:href="#glyph-1-13" x="129.651367" y="209.648438"/>
<use xlink:href="#glyph-1-9" x="135.671875" y="209.648438"/>
</g>
<g fill="rgb(0%, 0%, 0%)" fill-opacity="1">
<use xlink:href="#glyph-4-0" x="141.40625" y="210.519531"/>
</g>
<g fill="rgb(0%, 0%, 0%)" fill-opacity="1">
<use xlink:href="#glyph-2-0" x="144.722656" y="209.648438"/>
</g>
<g fill="rgb(0%, 0%, 0%)" fill-opacity="1">
<use xlink:href="#glyph-4-1" x="150.359375" y="210.519531"/>
</g>
<path fill="none" stroke-width="0.2" stroke-linecap="butt" stroke-linejoin="round" stroke="rgb(85%, 85%, 85%)" stroke-opacity="1" stroke-miterlimit="10" d="M 218.167969 105.507812 L 218.167969 220.847656 "/>
<path fill="none" stroke-width="0.2" stroke-linecap="butt" stroke-linejoin="round" stroke="rgb(85%, 85%, 85%)" stroke-opacity="1" stroke-miterlimit="10" d="M 236.015625 105.507812 L 236.015625 220.847656 "/>
<path fill="none" stroke-width="0.2" stroke-linecap="butt" stroke-linejoin="round" stroke="rgb(85%, 85%, 85%)" stroke-opacity="1" stroke-miterlimit="10" d="M 253.863281 105.507812 L 253.863281 220.847656 "/>
<path fill="none" stroke-width="0.2" stroke-linecap="butt" stroke-linejoin="round" stroke="rgb(85%, 85%, 85%)" stroke-opacity="1" stroke-miterlimit="10" d="M 271.707031 105.507812 L 271.707031 220.847656 "/>
<path fill="none" stroke-width="0.2" stroke-linecap="butt" stroke-linejoin="round" stroke="rgb(85%, 85%, 85%)" stroke-opacity="1" stroke-miterlimit="10" d="M 289.554688 105.507812 L 289.554688 220.847656 "/>
<path fill="none" stroke-width="0.2" stroke-linecap="butt" stroke-linejoin="round" stroke="rgb(85%, 85%, 85%)" stroke-opacity="1" stroke-miterlimit="10" d="M 307.402344 105.507812 L 307.402344 220.847656 "/>
<path fill="none" stroke-width="0.2" stroke-linecap="butt" stroke-linejoin="round" stroke="rgb(85%, 85%, 85%)" stroke-opacity="1" stroke-miterlimit="10" d="M 325.246094 105.507812 L 325.246094 220.847656 "/>
<path fill="none" stroke-width="0.2" stroke-linecap="butt" stroke-linejoin="round" stroke="rgb(85%, 85%, 85%)" stroke-opacity="1" stroke-miterlimit="10" d="M 214.824219 217.585938 L 333.054688 217.585938 "/>
<path fill="none" stroke-width="0.2" stroke-linecap="butt" stroke-linejoin="round" stroke="rgb(85%, 85%, 85%)" stroke-opacity="1" stroke-miterlimit="10" d="M 214.824219 195.792969 L 333.054688 195.792969 "/>
<path fill="none" stroke-width="0.2" stroke-linecap="butt" stroke-linejoin="round" stroke="rgb(85%, 85%, 85%)" stroke-opacity="1" stroke-miterlimit="10" d="M 214.824219 174 L 333.054688 174 "/>
<path fill="none" stroke-width="0.2" stroke-linecap="butt" stroke-linejoin="round" stroke="rgb(85%, 85%, 85%)" stroke-opacity="1" stroke-miterlimit="10" d="M 214.824219 152.207031 L 333.054688 152.207031 "/>
<path fill="none" stroke-width="0.2" stroke-linecap="butt" stroke-linejoin="round" stroke="rgb(85%, 85%, 85%)" stroke-opacity="1" stroke-miterlimit="10" d="M 214.824219 130.414062 L 333.054688 130.414062 "/>
<path fill="none" stroke-width="0.2" stroke-linecap="butt" stroke-linejoin="round" stroke="rgb(85%, 85%, 85%)" stroke-opacity="1" stroke-miterlimit="10" d="M 214.824219 108.621094 L 333.054688 108.621094 "/>
<path fill="none" stroke-width="0.5" stroke-linecap="butt" stroke-linejoin="round" stroke="rgb(0%, 0%, 0%)" stroke-opacity="1" stroke-miterlimit="10" d="M 214.824219 105.507812 L 333.058594 105.507812 L 333.058594 220.847656 L 214.824219 220.847656 Z M 214.824219 105.507812 "/>
<path fill="none" stroke-width="0.5" stroke-linecap="butt" stroke-linejoin="round" stroke="rgb(0%, 0%, 0%)" stroke-opacity="1" stroke-miterlimit="10" d="M 218.167969 220.847656 L 218.167969 216.847656 "/>
<g fill="rgb(0%, 0%, 0%)" fill-opacity="1">
<use xlink:href="#glyph-1-0" x="214.988281" y="232.960938"/>
</g>
<path fill="none" stroke-width="0.5" stroke-linecap="butt" stroke-linejoin="round" stroke="rgb(0%, 0%, 0%)" stroke-opacity="1" stroke-miterlimit="10" d="M 236.015625 220.847656 L 236.015625 216.847656 "/>
<g fill="rgb(0%, 0%, 0%)" fill-opacity="1">
<use xlink:href="#glyph-1-1" x="232.835938" y="232.960938"/>
</g>
<path fill="none" stroke-width="0.5" stroke-linecap="butt" stroke-linejoin="round" stroke="rgb(0%, 0%, 0%)" stroke-opacity="1" stroke-miterlimit="10" d="M 253.863281 220.847656 L 253.863281 216.847656 "/>
<g fill="rgb(0%, 0%, 0%)" fill-opacity="1">
<use xlink:href="#glyph-1-2" x="250.679688" y="232.960938"/>
</g>
<path fill="none" stroke-width="0.5" stroke-linecap="butt" stroke-linejoin="round" stroke="rgb(0%, 0%, 0%)" stroke-opacity="1" stroke-miterlimit="10" d="M 271.707031 220.847656 L 271.707031 216.847656 "/>
<g fill="rgb(0%, 0%, 0%)" fill-opacity="1">
<use xlink:href="#glyph-1-3" x="268.527344" y="232.960938"/>
</g>
<path fill="none" stroke-width="0.5" stroke-linecap="butt" stroke-linejoin="round" stroke="rgb(0%, 0%, 0%)" stroke-opacity="1" stroke-miterlimit="10" d="M 289.554688 220.847656 L 289.554688 216.847656 "/>
<g fill="rgb(0%, 0%, 0%)" fill-opacity="1">
<use xlink:href="#glyph-1-4" x="286.375" y="232.960938"/>
</g>
<path fill="none" stroke-width="0.5" stroke-linecap="butt" stroke-linejoin="round" stroke="rgb(0%, 0%, 0%)" stroke-opacity="1" stroke-miterlimit="10" d="M 307.402344 220.847656 L 307.402344 216.847656 "/>
<g fill="rgb(0%, 0%, 0%)" fill-opacity="1">
<use xlink:href="#glyph-1-5" x="304.21875" y="232.894531"/>
</g>
<path fill="none" stroke-width="0.5" stroke-linecap="butt" stroke-linejoin="round" stroke="rgb(0%, 0%, 0%)" stroke-opacity="1" stroke-miterlimit="10" d="M 325.246094 220.847656 L 325.246094 216.847656 "/>
<g fill="rgb(0%, 0%, 0%)" fill-opacity="1">
<use xlink:href="#glyph-1-6" x="322.066406" y="232.960938"/>
</g>
<g fill="rgb(0%, 0%, 0%)" fill-opacity="1">
<use xlink:href="#glyph-2-0" x="271.121094" y="246"/>
</g>
<path fill="none" stroke-width="0.5" stroke-linecap="butt" stroke-linejoin="round" stroke="rgb(0%, 0%, 0%)" stroke-opacity="1" stroke-miterlimit="10" d="M 214.824219 217.585938 L 218.824219 217.585938 "/>
<g fill="rgb(0%, 0%, 0%)" fill-opacity="1">
<use xlink:href="#glyph-1-0" x="194.917969" y="221.382812"/>
<use xlink:href="#glyph-1-8" x="201.280273" y="221.382812"/>
<use xlink:href="#glyph-1-0" x="204.458984" y="221.382812"/>
</g>
<path fill="none" stroke-width="0.5" stroke-linecap="butt" stroke-linejoin="round" stroke="rgb(0%, 0%, 0%)" stroke-opacity="1" stroke-miterlimit="10" d="M 214.824219 195.792969 L 218.824219 195.792969 "/>
<g fill="rgb(0%, 0%, 0%)" fill-opacity="1">
<use xlink:href="#glyph-1-0" x="194.917969" y="199.589844"/>
<use xlink:href="#glyph-1-8" x="201.280273" y="199.589844"/>
<use xlink:href="#glyph-1-2" x="204.458984" y="199.589844"/>
</g>
<path fill="none" stroke-width="0.5" stroke-linecap="butt" stroke-linejoin="round" stroke="rgb(0%, 0%, 0%)" stroke-opacity="1" stroke-miterlimit="10" d="M 214.824219 174 L 218.824219 174 "/>
<g fill="rgb(0%, 0%, 0%)" fill-opacity="1">
<use xlink:href="#glyph-1-0" x="194.917969" y="177.796875"/>
<use xlink:href="#glyph-1-8" x="201.280273" y="177.796875"/>
<use xlink:href="#glyph-1-4" x="204.458984" y="177.796875"/>
</g>
<path fill="none" stroke-width="0.5" stroke-linecap="butt" stroke-linejoin="round" stroke="rgb(0%, 0%, 0%)" stroke-opacity="1" stroke-miterlimit="10" d="M 214.824219 152.207031 L 218.824219 152.207031 "/>
<g fill="rgb(0%, 0%, 0%)" fill-opacity="1">
<use xlink:href="#glyph-1-0" x="194.917969" y="156.003906"/>
<use xlink:href="#glyph-1-8" x="201.280273" y="156.003906"/>
<use xlink:href="#glyph-1-6" x="204.458984" y="156.003906"/>
</g>
<path fill="none" stroke-width="0.5" stroke-linecap="butt" stroke-linejoin="round" stroke="rgb(0%, 0%, 0%)" stroke-opacity="1" stroke-miterlimit="10" d="M 214.824219 130.414062 L 218.824219 130.414062 "/>
<g fill="rgb(0%, 0%, 0%)" fill-opacity="1">
<use xlink:href="#glyph-1-0" x="194.917969" y="134.210938"/>
<use xlink:href="#glyph-1-8" x="201.280273" y="134.210938"/>
<use xlink:href="#glyph-1-14" x="204.458984" y="134.210938"/>
</g>
<path fill="none" stroke-width="0.5" stroke-linecap="butt" stroke-linejoin="round" stroke="rgb(0%, 0%, 0%)" stroke-opacity="1" stroke-miterlimit="10" d="M 214.824219 108.621094 L 218.824219 108.621094 "/>
<g fill="rgb(0%, 0%, 0%)" fill-opacity="1">
<use xlink:href="#glyph-1-1" x="194.917969" y="112.417969"/>
<use xlink:href="#glyph-1-8" x="201.280273" y="112.417969"/>
<use xlink:href="#glyph-1-0" x="204.458984" y="112.417969"/>
</g>
<g fill="rgb(0%, 0%, 0%)" fill-opacity="1">
<use xlink:href="#glyph-3-9" x="189.167969" y="179.417969"/>
<use xlink:href="#glyph-3-4" x="189.167969" y="174.286133"/>
<use xlink:href="#glyph-3-10" x="189.167969" y="171.087891"/>
</g>
<g fill="rgb(0%, 0%, 0%)" fill-opacity="1">
<use xlink:href="#glyph-5-0" x="183.949219" y="164.226562"/>
</g>
<g fill="rgb(0%, 0%, 0%)" fill-opacity="1">
<use xlink:href="#glyph-6-0" x="190.039062" y="159.808594"/>
</g>
<g fill="rgb(0%, 0%, 0%)" fill-opacity="1">
<use xlink:href="#glyph-7-0" x="189.167969" y="156.496094"/>
</g>
<g fill="rgb(0%, 0%, 0%)" fill-opacity="1">
<use xlink:href="#glyph-6-1" x="190.039062" y="150.855469"/>
</g>
<path fill="none" stroke-width="0.5" stroke-linecap="butt" stroke-linejoin="round" stroke="rgb(100%, 54.901961%, 0%)" stroke-opacity="1" stroke-miterlimit="10" d="M 218.167969 217.585938 L 222.628906 210.914062 L 227.09375 192.539062 L 231.554688 166.957031 L 236.015625 140.429688 L 240.476562 119.453125 L 244.9375 109.164062 L 249.398438 112.082031 L 253.863281 127.488281 L 258.324219 151.617188 L 262.785156 178.558594 L 267.246094 201.710938 L 271.707031 215.414062 L 276.167969 216.308594 L 280.632812 204.175781 L 285.09375 181.988281 L 289.554688 155.175781 L 294.015625 130.304688 L 298.476562 113.460938 L 302.941406 108.773438 L 307.402344 117.386719 L 311.863281 137.195312 L 316.324219 163.34375 L 320.785156 189.433594 L 325.246094 209.078125 L 329.710938 217.464844 "/>
<g fill="rgb(0%, 0%, 0%)" fill-opacity="1">
<use xlink:href="#glyph-0-24" x="252.046875" y="94.210938"/>
<use xlink:href="#glyph-0-20" x="260.806641" y="94.210938"/>
<use xlink:href="#glyph-0-1" x="268.535156" y="94.210938"/>
<use xlink:href="#glyph-0-12" x="275.636719" y="94.210938"/>
<use xlink:href="#glyph-0-19" x="281.373047" y="94.210938"/>
<use xlink:href="#glyph-0-8" x="289.054688" y="94.210938"/>
</g>
<path fill-rule="nonzero" fill="rgb(100%, 100%, 100%)" fill-opacity="1" stroke-width="0.4" stroke-linecap="butt" stroke-linejoin="round" stroke="rgb(0%, 0%, 0%)" stroke-opacity="1" stroke-miterlimit="10" d="M 257.855469 112.316406 L 257.855469 126.253906 C 257.855469 128.558594 257.855469 128.558594 260.164062 128.558594 L 326.25 128.558594 C 328.554688 128.558594 328.554688 128.558594 328.554688 126.253906 L 328.554688 112.316406 C 328.554688 110.007812 328.554688 110.007812 326.25 110.007812 L 260.164062 110.007812 C 257.855469 110.007812 257.855469 110.007812 257.855469 112.316406 Z M 257.855469 112.316406 "/>
<path fill="none" stroke-width="0.5" stroke-linecap="butt" stroke-linejoin="round" stroke="rgb(100%, 54.901961%, 0%)" stroke-opacity="1" stroke-miterlimit="10" d="M 262.355469 119.058594 L 281.355469 119.058594 "/>
<g fill="rgb(0%, 0%, 0%)" fill-opacity="1">
<use xlink:href="#glyph-1-9" x="290.355469" y="122.679688"/>
<use xlink:href="#glyph-1-10" x="295.487305" y="122.679688"/>
<use xlink:href="#glyph-1-11" x="298.685547" y="122.679688"/>
</g>
<g fill="rgb(0%, 0%, 0%)" fill-opacity="1">
<use xlink:href="#glyph-8-0" x="305.546875" y="117.460938"/>
</g>
<g fill="rgb(0%, 0%, 0%)" fill-opacity="1">
<use xlink:href="#glyph-4-0" x="309.964844" y="123.550781"/>
</g>
<g fill="rgb(0%, 0%, 0%)" fill-opacity="1">
<use xlink:href="#glyph-2-0" x="313.28125" y="122.679688"/>
</g>
<g fill="rgb(0%, 0%, 0%)" fill-opacity="1">
<use xlink:href="#glyph-4-1" x="318.921875" y="123.550781"/>
</g>
<path fill="none" stroke-width="0.2" stroke-linecap="butt" stroke-linejoin="round" stroke="rgb(85%, 85%, 85%)" stroke-opacity="1" stroke-miterlimit="10" d="M 401.359375 62.378906 L 401.359375 222.9375 "/>
<path fill="none" stroke-width="0.2" stroke-linecap="butt" stroke-linejoin="round" stroke="rgb(85%, 85%, 85%)" stroke-opacity="1" stroke-miterlimit="10" d="M 432.273438 62.378906 L 432.273438 222.9375 "/>
<path fill="none" stroke-width="0.2" stroke-linecap="butt" stroke-linejoin="round" stroke="rgb(85%, 85%, 85%)" stroke-opacity="1" stroke-miterlimit="10" d="M 463.1875 62.378906 L 463.1875 222.9375 "/>
<path fill="none" stroke-width="0.2" stroke-linecap="butt" stroke-linejoin="round" stroke="rgb(85%, 85%, 85%)" stroke-opacity="1" stroke-miterlimit="10" d="M 494.097656 62.378906 L 494.097656 222.9375 "/>
<path fill="none" stroke-width="0.2" stroke-linecap="butt" stroke-linejoin="round" stroke="rgb(85%, 85%, 85%)" stroke-opacity="1" stroke-miterlimit="10" d="M 389.402344 218.394531 L 506.054688 218.394531 "/>
<path fill="none" stroke-width="0.2" stroke-linecap="butt" stroke-linejoin="round" stroke="rgb(85%, 85%, 85%)" stroke-opacity="1" stroke-miterlimit="10" d="M 389.402344 194.726562 L 506.054688 194.726562 "/>
<path fill="none" stroke-width="0.2" stroke-linecap="butt" stroke-linejoin="round" stroke="rgb(85%, 85%, 85%)" stroke-opacity="1" stroke-miterlimit="10" d="M 389.402344 171.058594 L 506.054688 171.058594 "/>
<path fill="none" stroke-width="0.2" stroke-linecap="butt" stroke-linejoin="round" stroke="rgb(85%, 85%, 85%)" stroke-opacity="1" stroke-miterlimit="10" d="M 389.402344 147.390625 L 506.054688 147.390625 "/>
<path fill="none" stroke-width="0.2" stroke-linecap="butt" stroke-linejoin="round" stroke="rgb(85%, 85%, 85%)" stroke-opacity="1" stroke-miterlimit="10" d="M 389.402344 123.726562 L 506.054688 123.726562 "/>
<path fill="none" stroke-width="0.2" stroke-linecap="butt" stroke-linejoin="round" stroke="rgb(85%, 85%, 85%)" stroke-opacity="1" stroke-miterlimit="10" d="M 389.402344 100.058594 L 506.054688 100.058594 "/>
<path fill="none" stroke-width="0.2" stroke-linecap="butt" stroke-linejoin="round" stroke="rgb(85%, 85%, 85%)" stroke-opacity="1" stroke-miterlimit="10" d="M 389.402344 76.390625 L 506.054688 76.390625 "/>
<path fill="none" stroke-width="0.5" stroke-linecap="butt" stroke-linejoin="round" stroke="rgb(0%, 0%, 0%)" stroke-opacity="1" stroke-miterlimit="10" d="M 389.402344 62.378906 L 506.054688 62.378906 L 506.054688 222.9375 L 389.402344 222.9375 Z M 389.402344 62.378906 "/>
<path fill="none" stroke-width="0.5" stroke-linecap="butt" stroke-linejoin="round" stroke="rgb(0%, 0%, 0%)" stroke-opacity="1" stroke-miterlimit="10" d="M 401.359375 222.9375 L 401.359375 218.9375 "/>
<g fill="rgb(0%, 0%, 0%)" fill-opacity="1">
<use xlink:href="#glyph-1-1" x="398.179688" y="235.046875"/>
</g>
<path fill="none" stroke-width="0.5" stroke-linecap="butt" stroke-linejoin="round" stroke="rgb(0%, 0%, 0%)" stroke-opacity="1" stroke-miterlimit="10" d="M 432.273438 222.9375 L 432.273438 218.9375 "/>
<g fill="rgb(0%, 0%, 0%)" fill-opacity="1">
<use xlink:href="#glyph-1-2" x="429.089844" y="235.046875"/>
</g>
<path fill="none" stroke-width="0.5" stroke-linecap="butt" stroke-linejoin="round" stroke="rgb(0%, 0%, 0%)" stroke-opacity="1" stroke-miterlimit="10" d="M 463.1875 222.9375 L 463.1875 218.9375 "/>
<g fill="rgb(0%, 0%, 0%)" fill-opacity="1">
<use xlink:href="#glyph-1-3" x="460.003906" y="235.046875"/>
</g>
<path fill="none" stroke-width="0.5" stroke-linecap="butt" stroke-linejoin="round" stroke="rgb(0%, 0%, 0%)" stroke-opacity="1" stroke-miterlimit="10" d="M 494.097656 222.9375 L 494.097656 218.9375 "/>
<g fill="rgb(0%, 0%, 0%)" fill-opacity="1">
<use xlink:href="#glyph-1-4" x="490.917969" y="235.046875"/>
</g>
<g fill="rgb(0%, 0%, 0%)" fill-opacity="1">
<use xlink:href="#glyph-1-12" x="425.554688" y="248.226562"/>
<use xlink:href="#glyph-1-15" x="431.155273" y="248.226562"/>
<use xlink:href="#glyph-1-16" x="437.117188" y="248.226562"/>
<use xlink:href="#glyph-1-17" x="441.135742" y="248.226562"/>
<use xlink:href="#glyph-1-18" x="447.053711" y="248.226562"/>
<use xlink:href="#glyph-1-13" x="453.455078" y="248.226562"/>
<use xlink:href="#glyph-1-19" x="459.475586" y="248.226562"/>
<use xlink:href="#glyph-1-20" x="464.255859" y="248.226562"/>
</g>
<path fill="none" stroke-width="0.5" stroke-linecap="butt" stroke-linejoin="round" stroke="rgb(0%, 0%, 0%)" stroke-opacity="1" stroke-miterlimit="10" d="M 389.402344 218.394531 L 393.402344 218.394531 "/>
<g fill="rgb(0%, 0%, 0%)" fill-opacity="1">
<use xlink:href="#glyph-1-0" x="363.136719" y="222.195312"/>
<use xlink:href="#glyph-1-8" x="369.499023" y="222.195312"/>
<use xlink:href="#glyph-1-0" x="372.677734" y="222.195312"/>
<use xlink:href="#glyph-1-0" x="379.040039" y="222.195312"/>
</g>
<path fill="none" stroke-width="0.5" stroke-linecap="butt" stroke-linejoin="round" stroke="rgb(0%, 0%, 0%)" stroke-opacity="1" stroke-miterlimit="10" d="M 389.402344 194.726562 L 393.402344 194.726562 "/>
<g fill="rgb(0%, 0%, 0%)" fill-opacity="1">
<use xlink:href="#glyph-1-0" x="363.136719" y="198.527344"/>
<use xlink:href="#glyph-1-8" x="369.499023" y="198.527344"/>
<use xlink:href="#glyph-1-2" x="372.677734" y="198.527344"/>
<use xlink:href="#glyph-1-5" x="379.040039" y="198.527344"/>
</g>
<path fill="none" stroke-width="0.5" stroke-linecap="butt" stroke-linejoin="round" stroke="rgb(0%, 0%, 0%)" stroke-opacity="1" stroke-miterlimit="10" d="M 389.402344 171.058594 L 393.402344 171.058594 "/>
<g fill="rgb(0%, 0%, 0%)" fill-opacity="1">
<use xlink:href="#glyph-1-0" x="363.136719" y="174.859375"/>
<use xlink:href="#glyph-1-8" x="369.499023" y="174.859375"/>
<use xlink:href="#glyph-1-5" x="372.677734" y="174.859375"/>
<use xlink:href="#glyph-1-0" x="379.040039" y="174.859375"/>
</g>
<path fill="none" stroke-width="0.5" stroke-linecap="butt" stroke-linejoin="round" stroke="rgb(0%, 0%, 0%)" stroke-opacity="1" stroke-miterlimit="10" d="M 389.402344 147.390625 L 393.402344 147.390625 "/>
<g fill="rgb(0%, 0%, 0%)" fill-opacity="1">
<use xlink:href="#glyph-1-0" x="363.136719" y="151.191406"/>
<use xlink:href="#glyph-1-8" x="369.499023" y="151.191406"/>
<use xlink:href="#glyph-1-21" x="372.677734" y="151.191406"/>
<use xlink:href="#glyph-1-5" x="379.040039" y="151.191406"/>
</g>
<path fill="none" stroke-width="0.5" stroke-linecap="butt" stroke-linejoin="round" stroke="rgb(0%, 0%, 0%)" stroke-opacity="1" stroke-miterlimit="10" d="M 389.402344 123.726562 L 393.402344 123.726562 "/>
<g fill="rgb(0%, 0%, 0%)" fill-opacity="1">
<use xlink:href="#glyph-1-1" x="363.136719" y="127.523438"/>
<use xlink:href="#glyph-1-8" x="369.499023" y="127.523438"/>
<use xlink:href="#glyph-1-0" x="372.677734" y="127.523438"/>
<use xlink:href="#glyph-1-0" x="379.040039" y="127.523438"/>
</g>
<path fill="none" stroke-width="0.5" stroke-linecap="butt" stroke-linejoin="round" stroke="rgb(0%, 0%, 0%)" stroke-opacity="1" stroke-miterlimit="10" d="M 389.402344 100.058594 L 393.402344 100.058594 "/>
<g fill="rgb(0%, 0%, 0%)" fill-opacity="1">
<use xlink:href="#glyph-1-1" x="363.136719" y="103.859375"/>
<use xlink:href="#glyph-1-8" x="369.499023" y="103.859375"/>
<use xlink:href="#glyph-1-2" x="372.677734" y="103.859375"/>
<use xlink:href="#glyph-1-5" x="379.040039" y="103.859375"/>
</g>
<path fill="none" stroke-width="0.5" stroke-linecap="butt" stroke-linejoin="round" stroke="rgb(0%, 0%, 0%)" stroke-opacity="1" stroke-miterlimit="10" d="M 389.402344 76.390625 L 393.402344 76.390625 "/>
<g fill="rgb(0%, 0%, 0%)" fill-opacity="1">
<use xlink:href="#glyph-1-1" x="363.136719" y="80.191406"/>
<use xlink:href="#glyph-1-8" x="369.499023" y="80.191406"/>
<use xlink:href="#glyph-1-5" x="372.677734" y="80.191406"/>
<use xlink:href="#glyph-1-0" x="379.040039" y="80.191406"/>
</g>
<g fill="rgb(0%, 0%, 0%)" fill-opacity="1">
<use xlink:href="#glyph-3-11" x="358.601562" y="156.242188"/>
<use xlink:href="#glyph-3-0" x="358.601562" y="150.592773"/>
<use xlink:href="#glyph-3-3" x="358.601562" y="144.630859"/>
<use xlink:href="#glyph-3-6" x="358.601562" y="141.432617"/>
<use xlink:href="#glyph-3-8" x="358.601562" y="134.992188"/>
</g>
<path fill-rule="nonzero" fill="rgb(27.45098%, 50.980392%, 70.588235%)" fill-opacity="1" stroke-width="0.5" stroke-linecap="butt" stroke-linejoin="round" stroke="rgb(0%, 0%, 0%)" stroke-opacity="1" stroke-miterlimit="10" d="M 392.703125 104.792969 L 410.015625 104.792969 L 410.015625 218.394531 L 392.703125 218.394531 Z M 392.703125 104.792969 "/>
<path fill-rule="nonzero" fill="rgb(27.45098%, 50.980392%, 70.588235%)" fill-opacity="1" stroke-width="0.5" stroke-linecap="butt" stroke-linejoin="round" stroke="rgb(0%, 0%, 0%)" stroke-opacity="1" stroke-miterlimit="10" d="M 423.617188 142.660156 L 440.929688 142.660156 L 440.929688 218.394531 L 423.617188 218.394531 Z M 423.617188 142.660156 "/>
<path fill-rule="nonzero" fill="rgb(27.45098%, 50.980392%, 70.588235%)" fill-opacity="1" stroke-width="0.5" stroke-linecap="butt" stroke-linejoin="round" stroke="rgb(0%, 0%, 0%)" stroke-opacity="1" stroke-miterlimit="10" d="M 454.53125 66.925781 L 471.84375 66.925781 L 471.84375 218.394531 L 454.53125 218.394531 Z M 454.53125 66.925781 "/>
<path fill-rule="nonzero" fill="rgb(27.45098%, 50.980392%, 70.588235%)" fill-opacity="1" stroke-width="0.5" stroke-linecap="butt" stroke-linejoin="round" stroke="rgb(0%, 0%, 0%)" stroke-opacity="1" stroke-miterlimit="10" d="M 485.441406 114.257812 L 502.753906 114.257812 L 502.753906 218.394531 L 485.441406 218.394531 Z M 485.441406 114.257812 "/>
<g fill="rgb(0%, 0%, 0%)" fill-opacity="1">
<use xlink:href="#glyph-0-14" x="414.730469" y="53"/>
<use xlink:href="#glyph-0-7" x="423.912109" y="53"/>
<use xlink:href="#glyph-0-3" x="431.066406" y="53"/>
<use xlink:href="#glyph-0-1" x="435.888672" y="53"/>
<use xlink:href="#glyph-0-19" x="442.990234" y="53"/>
<use xlink:href="#glyph-0-9" x="450.671875" y="53"/>
<use xlink:href="#glyph-0-12" x="457.896484" y="53"/>
<use xlink:href="#glyph-0-18" x="463.632812" y="53"/>
<use xlink:href="#glyph-0-1" x="467.470703" y="53"/>
<use xlink:href="#glyph-0-2" x="474.572266" y="53"/>
</g>
<path fill-rule="nonzero" fill="rgb(100%, 100%, 100%)" fill-opacity="1" stroke-width="0.4" stroke-linecap="butt" stroke-linejoin="round" stroke="rgb(0%, 0%, 0%)" stroke-opacity="1" stroke-miterlimit="10" d="M 393.902344 69.214844 L 393.902344 80.546875 C 393.902344 82.878906 393.902344 82.878906 396.234375 82.878906 L 456.570312 82.878906 C 458.902344 82.878906 458.902344 82.878906 458.902344 80.546875 L 458.902344 69.214844 C 458.902344 66.878906 458.902344 66.878906 456.570312 66.878906 L 396.234375 66.878906 C 393.902344 66.878906 393.902344 66.878906 393.902344 69.214844 Z M 393.902344 69.214844 "/>
<path fill-rule="nonzero" fill="rgb(27.45098%, 50.980392%, 70.588235%)" fill-opacity="1" stroke-width="0.5" stroke-linecap="butt" stroke-linejoin="round" stroke="rgb(0%, 0%, 0%)" stroke-opacity="1" stroke-miterlimit="10" d="M 398.402344 71.878906 L 417.402344 71.878906 L 417.402344 77.878906 L 398.402344 77.878906 Z M 398.402344 71.878906 "/>
<g fill="rgb(0%, 0%, 0%)" fill-opacity="1">
<use xlink:href="#glyph-1-22" x="426.402344" y="78.078125"/>
<use xlink:href="#glyph-1-15" x="432.051758" y="78.078125"/>
<use xlink:href="#glyph-1-23" x="438.013672" y="78.078125"/>
<use xlink:href="#glyph-1-24" x="441.211914" y="78.078125"/>
<use xlink:href="#glyph-1-17" x="447.652344" y="78.078125"/>
</g>
</svg>
